<?xml version="1.0" encoding="UTF-8"?>
<svg version="1.1" xmlns="http://www.w3.org/2000/svg" width="1024" height="1536">
<path d="M0 0 C0 0.66 0 1.32 0 2 C0.89229813 2.25760101 1.78459625 2.51520203 2.70393372 2.78060913 C11.97495622 6.21045526 19.32375025 14.99492612 26.20703125 21.8359375 C27.13545334 22.75533112 28.06387543 23.67472473 29.02043152 24.62197876 C30.96771873 26.55293896 32.91071725 28.48810313 34.85131836 30.42578125 C37.31828104 32.88734108 39.80105099 35.33228171 42.28795338 37.7736721 C44.68882732 40.13740658 47.07164678 42.51907407 49.45703125 44.8984375 C50.78212456 46.19423233 50.78212456 46.19423233 52.13398743 47.51620483 C59.60523217 55.04227465 64.4085686 62.45924969 65.25 73.1875 C64.29888387 87.69202093 55.00111993 96.34386163 45.18237305 106.07836914 C43.66534985 107.58449098 42.15953996 109.10125457 40.65429688 110.61914062 C39.69074625 111.58137256 38.72657698 112.5429855 37.76171875 113.50390625 C36.4617395 114.80050171 36.4617395 114.80050171 35.13549805 116.12329102 C33 118 33 118 31 118 C30.76112061 118.56354187 30.52224121 119.12708374 30.27612305 119.70770264 C28.72128723 122.5006512 26.84127694 124.41305591 24.58203125 126.67675781 C23.66768311 127.59741028 22.75333496 128.51806274 21.8112793 129.46661377 C20.81194096 130.46237326 19.81234162 131.45787087 18.8125 132.453125 C17.7885255 133.47844703 16.76484802 134.50406577 15.74145508 135.52996826 C13.5994283 137.67493952 11.45383556 139.81626131 9.30566406 141.95507812 C6.54804154 144.7012777 3.79953278 147.45639659 1.05360413 150.21428299 C-1.05653945 152.33163883 -3.17140501 154.44422622 -5.28775024 156.55538177 C-6.30354783 157.5698426 -7.31785467 158.58579835 -8.33065796 159.6032486 C-9.74295287 161.02060124 -11.16231931 162.43089711 -12.58203125 163.84082031 C-13.38874268 164.64594055 -14.1954541 165.45106079 -15.02661133 166.28057861 C-17 168 -17 168 -19 168 C-19.26876953 168.59329102 -19.53753906 169.18658203 -19.81445312 169.79785156 C-21.00290732 172.00540033 -22.20742389 173.46542882 -23.96875 175.234375 C-24.82533203 176.09482422 -24.82533203 176.09482422 -25.69921875 176.97265625 C-26.29347656 177.55917969 -26.88773438 178.14570312 -27.5 178.75 C-28.09425781 179.35199219 -28.68851563 179.95398438 -29.30078125 180.57421875 C-30.15736328 181.42693359 -30.15736328 181.42693359 -31.03125 182.296875 C-31.55267578 182.81604492 -32.07410156 183.33521484 -32.61132812 183.87011719 C-34 185 -34 185 -36 185 C-36.21615967 185.54082214 -36.43231934 186.08164429 -36.6550293 186.63885498 C-38.47043075 189.8258583 -40.93700973 192.21545112 -43.51953125 194.77832031 C-44.08231781 195.34461151 -44.64510437 195.91090271 -45.22494507 196.49435425 C-47.08247044 198.36066702 -48.94719782 200.21958718 -50.8125 202.078125 C-52.10551762 203.37248975 -53.39823822 204.66715128 -54.69067383 205.96209717 C-57.39763755 208.67200778 -60.10818211 211.37827154 -62.82128906 214.08203125 C-66.30531153 217.55463671 -69.78024903 221.03617321 -73.25257874 224.52046585 C-75.91859914 227.1936971 -78.58934468 229.86216643 -81.26156616 232.52919769 C-82.54530841 233.81160248 -83.82755756 235.09550367 -85.10830688 236.38089752 C-86.89424516 238.17189072 -88.68642648 239.95638758 -90.48046875 241.73925781 C-91.01247894 242.27531647 -91.54448914 242.81137512 -92.09262085 243.36367798 C-95.77146851 247 -95.77146851 247 -98 247 C-98.309375 247.804375 -98.309375 247.804375 -98.625 248.625 C-100.53250426 251.91978009 -103.04819384 254.59363628 -106 257 C-106.66 257 -107.32 257 -108 257 C-108.268125 257.639375 -108.53625 258.27875 -108.8125 258.9375 C-110 261 -110 261 -113 262 C-113.33 262.99 -113.66 263.98 -114 265 C-114.66 265 -115.32 265 -116 265 C-116.268125 265.639375 -116.53625 266.27875 -116.8125 266.9375 C-118 269 -118 269 -121 270 C-121.33 270.99 -121.66 271.98 -122 273 C-122.66 273 -123.32 273 -124 273 C-124.3403125 273.86625 -124.3403125 273.86625 -124.6875 274.75 C-126.34726345 277.59530878 -128.42066667 278.93653334 -131 281 C-132.8667705 283.09207039 -134.6675424 285.22574996 -136.44921875 287.390625 C-136.96097656 287.92171875 -137.47273437 288.4528125 -138 289 C-138.66 289 -139.32 289 -140 289 C-140.268125 289.639375 -140.53625 290.27875 -140.8125 290.9375 C-142 293 -142 293 -145 294 C-145.68919082 295.3218314 -146.35215322 296.6574216 -147 298 C-148.28408959 299.45825086 -149.6263535 300.86606783 -151.00325012 302.23703003 C-151.84018906 303.07527313 -152.67712799 303.91351624 -153.53942871 304.77716064 C-154.45945679 305.68842712 -155.37948486 306.5996936 -156.32739258 307.53857422 C-157.30522098 308.51420063 -158.28260142 309.4902762 -159.25956726 310.46676636 C-161.36288542 312.56715292 -163.4693197 314.66434546 -165.57822609 316.75912094 C-168.91591088 320.07451454 -172.24647051 323.39700447 -175.57609558 326.7204895 C-180.84681171 331.97982478 -186.12217714 337.23446804 -191.39958829 342.48708451 C-200.8410223 351.88422786 -210.27695695 361.28688491 -219.70760268 370.69485486 C-223.0152915 373.99415979 -226.32576798 377.29063409 -229.63854754 380.58482718 C-231.70420812 382.63980092 -233.76780296 384.69684003 -235.83090401 386.75438309 C-237.23686863 388.15525381 -238.64538335 389.55356371 -240.0539856 390.95178223 C-245.21741676 396.10088997 -245.21741676 396.10088997 -249.98222351 401.61233521 C-250.64808975 402.40026459 -251.31395599 403.18819397 -252 404 C-252.66 404 -253.32 404 -254 404 C-254.3403125 404.8353125 -254.3403125 404.8353125 -254.6875 405.6875 C-256.3703574 408.65253447 -258.53621374 410.65353689 -261 413 C-261.721875 413.763125 -262.44375 414.52625 -263.1875 415.3125 C-265 417 -265 417 -267 417 C-267.25652344 417.59554688 -267.51304687 418.19109375 -267.77734375 418.8046875 C-269.10969687 421.19696371 -270.43368605 422.42728199 -272.5625 424.125 C-275.21025666 426.20903634 -275.21025666 426.20903634 -277 429 C-277.66 429 -278.32 429 -279 429 C-279.66 430.32 -280.32 431.64 -281 433 C-281.66 433 -282.32 433 -283 433 C-283.66 434.32 -284.32 435.64 -285 437 C-285.66 437 -286.32 437 -287 437 C-287.25265625 437.5878125 -287.5053125 438.175625 -287.765625 438.78125 C-291.37178125 445.26320174 -299.50313471 450.65505181 -306.25 453.25 C-315.92625062 455.18525012 -323.56448183 453.90068692 -332.04296875 448.76171875 C-335.33583305 446.49392521 -338.38085746 444.03820535 -341 441 C-341 440.34 -341 439.68 -341 439 C-341.86625 438.62875 -341.86625 438.62875 -342.75 438.25 C-345.32939979 436.81700012 -347.06121592 435.21575324 -349 433 C-349 432.34 -349 431.68 -349 431 C-349.84256348 430.64421875 -349.84256348 430.64421875 -350.70214844 430.28125 C-353.52582658 428.70680643 -355.47614842 426.78315455 -357.765625 424.5 C-358.65507812 423.613125 -359.54453125 422.72625 -360.4609375 421.8125 C-361.38132812 420.884375 -362.30171875 419.95625 -363.25 419 C-364.18585938 418.071875 -365.12171875 417.14375 -366.0859375 416.1875 C-366.97023438 415.300625 -367.85453125 414.41375 -368.765625 413.5 C-369.57805664 412.6853125 -370.39048828 411.870625 -371.22753906 411.03125 C-373 409 -373 409 -373 407 C-373.8353125 406.6596875 -373.8353125 406.6596875 -374.6875 406.3125 C-381.68709484 402.33975698 -387.9394699 394.24641839 -390.4375 386.65625 C-392.41243598 377.33016344 -391.44750083 370.07118319 -386.79296875 361.74609375 C-384.2428815 357.84040456 -381.52334512 354.08746737 -378 351 C-377.34 351 -376.68 351 -376 351 C-375.74531952 350.41967514 -375.49063904 349.83935028 -375.22824097 349.24143982 C-373.86813034 346.75934859 -372.3592096 345.12525497 -370.34814453 343.13696289 C-369.22655441 342.0204409 -369.22655441 342.0204409 -368.08230591 340.88136292 C-367.27397308 340.08648972 -366.46564026 339.29161652 -365.6328125 338.47265625 C-364.80167938 337.6467247 -363.97054626 336.82079315 -363.11422729 335.96983337 C-360.4558484 333.32926969 -357.79089489 330.69547371 -355.125 328.0625 C-352.4671001 325.43226151 -349.81068216 322.80056972 -347.15719604 320.1658783 C-345.50609657 318.52698456 -343.85233079 316.89077151 -342.19558716 315.25758362 C-339.15622037 312.2445418 -336.24937902 309.31410661 -333.58544922 305.95874023 C-333.06225098 305.31235596 -332.53905273 304.66597168 -332 304 C-331.34 304 -330.68 304 -330 304 C-329.34 302.68 -328.68 301.36 -328 300 C-327.34 300 -326.68 300 -326 300 C-325.773125 299.443125 -325.54625 298.88625 -325.3125 298.3125 C-323.62449964 295.33840412 -321.53323483 293.27991135 -319 291 C-318.34 291 -317.68 291 -317 291 C-316.7834375 290.45859375 -316.566875 289.9171875 -316.34375 289.359375 C-314.53500003 286.18354656 -312.08276201 283.79271919 -309.5 281.25 C-309.00113281 280.74339844 -308.50226563 280.23679687 -307.98828125 279.71484375 C-304.25341139 276 -304.25341139 276 -302 276 C-301.75991591 275.43516446 -301.51983181 274.87032893 -301.27247244 274.28837717 C-299.73173936 271.51756792 -297.88259815 269.63055379 -295.64044094 267.38596535 C-294.71890931 266.45860152 -293.79737767 265.53123769 -292.84792084 264.57577193 C-291.81858191 263.55006632 -290.78914762 262.52445642 -289.7596283 261.49893188 C-288.6708214 260.40710531 -287.58244947 259.31484483 -286.49447638 258.2221874 C-283.4994644 255.2168624 -280.49821404 252.21783532 -277.4959079 249.21979952 C-274.26040167 245.98675462 -271.03063391 242.74798579 -267.80010986 239.50996399 C-261.46767193 233.16475904 -255.12974659 226.82506265 -248.78975331 220.4874077 C-243.63572625 215.33516227 -238.48346562 210.18115685 -233.3324604 205.02589035 C-232.59985916 204.29269392 -231.86725792 203.55949749 -231.11245664 202.80408298 C-229.62422509 201.3146397 -228.13599475 199.82519522 -226.64776558 198.33574955 C-212.68095391 184.35805394 -198.70761905 170.38689359 -184.73231793 156.41768675 C-171.95066201 143.64119676 -159.17722922 130.85652179 -146.40767103 118.06794162 C-133.297219 104.9381097 -120.18121304 91.81384976 -107.0591889 78.69558275 C-99.69183082 71.33013699 -92.32669041 63.96250599 -84.96735954 56.58903885 C-78.69981835 50.30958073 -72.42704413 44.03540804 -66.14749133 37.7679608 C-62.94467208 34.57102893 -59.74429211 31.37175359 -56.55041695 28.16588402 C-53.62355012 25.22815379 -50.68978264 22.29749998 -47.75048251 19.37221126 C-46.69124944 18.31562391 -45.634513 17.25652614 -44.58061969 16.19461258 C-30.12135436 1.6330215 -30.12135436 1.6330215 -22 0 C-21.0925 -0.185625 -20.185 -0.37125 -19.25 -0.5625 C-12.67194247 -1.44800774 -6.52574327 -0.93224904 0 0 Z " fill="#8467E5" transform="translate(610,392)"/>
<path d="M0 0 C4.29933035 2.96628354 8.31141958 6.30498227 12 10 C12 10.66 12 11.32 12 12 C12.66 12 13.32 12 14 12 C15.4375 13.49609375 15.4375 13.49609375 17 15.4375 C19.14525044 18.15188238 19.14525044 18.15188238 22 20 C22 20.66 22 21.32 22 22 C22.55719727 22.23267578 23.11439453 22.46535156 23.68847656 22.70507812 C26.59923645 24.33569393 28.62181133 26.36239194 30.984375 28.71875 C32.38623047 30.11673828 32.38623047 30.11673828 33.81640625 31.54296875 C34.2973877 32.02813965 34.77836914 32.51331055 35.27392578 33.01318359 C36.75204848 34.50206339 38.24059911 35.97991651 39.73046875 37.45703125 C40.65988281 38.38902344 41.58929687 39.32101562 42.546875 40.28125 C43.40120117 41.13783203 44.25552734 41.99441406 45.13574219 42.87695312 C47 45 47 45 47 47 C47.52848541 47.20400106 48.05697083 47.40800213 48.60147095 47.61818504 C52.0258539 49.591004 54.60987644 52.32799162 57.37646484 55.10903931 C58.01409445 55.7421378 58.65172405 56.37523629 59.30867577 57.02751958 C61.44755801 59.1537249 63.57921048 61.28703284 65.7109375 63.42041016 C67.24156363 64.94505303 68.77259992 66.46928424 70.30401611 67.99313354 C74.46585029 72.1372781 78.62115259 76.28791333 82.7747879 80.44027376 C86.24235708 83.90594479 89.71265074 87.36888171 93.18281364 90.83195531 C101.3708744 99.00372261 109.55321476 107.18118829 117.73242188 115.36181641 C126.16884826 123.7994439 134.61635809 132.22585998 143.06916618 140.64707339 C150.32565467 147.87740385 157.5744043 155.11543137 164.81718636 162.35949171 C169.14309178 166.68590697 173.47204323 171.00916257 177.80877686 175.3247261 C181.88878517 179.38536081 185.95906497 183.45550188 190.02211761 187.53310013 C191.513397 189.02646989 193.00808683 190.51644307 194.50644684 192.00270844 C196.55488269 194.0356791 198.590538 196.0806656 200.62353516 198.12905884 C201.21614325 198.7113798 201.80875134 199.29370076 202.41931725 199.89366782 C208.26066821 205.83289756 211.48583241 212.20110249 212.375 220.5 C212.13657319 231.85148831 204.93044696 240.10264047 197.23828125 247.62109375 C196.2817231 248.57728682 195.32635841 249.53467512 194.37211609 250.49317932 C192.38335336 252.48322588 190.38319718 254.46075902 188.37329102 256.42944336 C185.81889761 258.93269796 183.29209896 261.46179545 180.77291584 264.00042629 C178.80814999 265.97556733 176.83108977 267.93802284 174.85008812 269.89686775 C173.46518009 271.26954292 172.0890566 272.6510632 170.71321106 274.03282166 C163.89668273 280.6740793 156.47600625 286.75355678 146.5 286.625 C136.83179713 286.15062556 131.01770958 282.18922577 124.09204102 275.6953125 C123.24788431 274.90935196 123.24788431 274.90935196 122.38667393 274.10751343 C115.61773904 267.76422377 109.07238459 261.19751371 102.52734375 254.625 C101.18809283 253.28387705 99.84861581 251.94297985 98.50892639 250.60229492 C95.0247917 247.11438894 91.54367092 243.62349072 88.06323242 240.13189697 C84.5107982 236.56916081 80.95547034 233.00931476 77.40039062 229.44921875 C71.67314215 223.71323452 65.94762897 217.97552526 60.22441101 212.23551941 C58.04796627 210.05278373 55.87218559 207.87888619 53.63453674 205.75854492 C52 204 52 204 52 202 C51.42765625 201.7525 50.8553125 201.505 50.265625 201.25 C47.64989389 199.80683801 45.85226544 198.11783778 43.75 196 C42.69039062 194.948125 42.69039062 194.948125 41.609375 193.875 C40 192 40 192 40 190 C39.360625 189.731875 38.72125 189.46375 38.0625 189.1875 C36 188 36 188 35 185 C33.6846659 184.29848848 32.34882408 183.63474075 31 183 C29.25 181.5 29.25 181.5 28 180 C28 179.34 28 178.68 28 178 C27.42765625 177.7525 26.8553125 177.505 26.265625 177.25 C23.64989389 175.80683801 21.85226544 174.11783778 19.75 172 C18.69039062 170.948125 18.69039062 170.948125 17.609375 169.875 C16 168 16 168 16 166 C15.39929688 165.73832031 14.79859375 165.47664062 14.1796875 165.20703125 C11.86595723 163.92577201 10.7454167 162.75192918 9.125 160.6875 C6.34460522 157.30480308 3.40208927 154.75062537 0 152 C-2.56373809 149.55834468 -4.81634699 147.25711422 -6.875 144.375 C-9.67522936 141.24533189 -11.97337909 140.1602128 -16 139 C-21.5211545 140.03047795 -24.45824765 141.83996419 -28.37484741 145.80049133 C-28.86858813 146.29278219 -29.36232885 146.78507305 -29.8710314 147.29228181 C-31.51258649 148.93496231 -33.13561486 150.59477354 -34.75927734 152.25512695 C-35.93670134 153.44051494 -37.11526465 154.62477219 -38.2948761 155.8079834 C-40.82847207 158.35397636 -43.35405304 160.90757201 -45.87372971 163.46734047 C-49.86241131 167.51898543 -53.86966896 171.55191179 -57.87979126 175.58232117 C-65.66979257 183.41673917 -73.44141722 191.26923732 -81.21056366 199.12432861 C-91.09101164 209.11312484 -100.97752811 219.09581986 -110.88490832 229.05791062 C-114.86512797 233.06141172 -118.83501001 237.07480261 -122.79703879 241.09630358 C-125.2702228 243.60265036 -127.75175412 246.10060727 -130.23550987 248.59647369 C-131.38024505 249.7502492 -132.52152276 250.90746771 -133.65893364 252.06846428 C-147.25393314 265.93707142 -147.25393314 265.93707142 -156.58984375 267.6640625 C-169.72403795 267.51080469 -177.24605749 262.57620718 -186.375 253.6875 C-187.24125 252.800625 -188.1075 251.91375 -189 251 C-189.76183594 250.26007813 -190.52367187 249.52015625 -191.30859375 248.7578125 C-192.13488281 247.95085937 -192.96117187 247.14390625 -193.8125 246.3125 C-194.60269531 245.54550781 -195.39289063 244.77851562 -196.20703125 243.98828125 C-198 242 -198 242 -198 240 C-198.58265625 239.7421875 -199.1653125 239.484375 -199.765625 239.21875 C-202.1802903 237.90165983 -203.81740177 236.44911616 -205.75 234.5 C-206.36359375 233.8915625 -206.9771875 233.283125 -207.609375 232.65625 C-209 231 -209 231 -209 229 C-209.58652344 228.75636719 -210.17304688 228.51273438 -210.77734375 228.26171875 C-216.66825895 224.91766671 -221.20513945 217.33480193 -223 211 C-224.24439048 199.02274159 -221.39914094 191.74641111 -214.12426758 182.51025391 C-210.23876852 177.91874703 -205.92601725 173.76081568 -201.625 169.5625 C-199.82336199 167.79516681 -198.02377005 166.0257446 -196.2265625 164.25390625 C-195.04441162 163.09870483 -195.04441162 163.09870483 -193.83837891 161.92016602 C-191.94041182 160.12708545 -191.94041182 160.12708545 -191 158 C-190.34 158 -189.68 158 -189 158 C-188.67 157.01 -188.34 156.02 -188 155 C-186.53427381 153.76227566 -185.06469408 152.52810996 -183.55859375 151.33984375 C-181.75878063 149.87616825 -181.75878063 149.87616825 -179.75 147.1875 C-179.1725 146.465625 -178.595 145.74375 -178 145 C-177.34 145 -176.68 145 -176 145 C-175.78296543 144.45820351 -175.56593086 143.91640701 -175.34231949 143.35819244 C-173.53816237 140.18864174 -171.09167945 137.81612615 -168.52288818 135.2689209 C-167.95779895 134.70071168 -167.39270972 134.13250247 -166.81049657 133.54707479 C-164.9145335 131.64313054 -163.0114969 129.74641945 -161.10839844 127.84960938 C-159.74798226 126.48648334 -158.38799197 125.12293215 -157.02839661 123.75898743 C-153.33249847 120.05396077 -149.63028832 116.35530181 -145.92665768 112.65800667 C-142.05205535 108.78846397 -138.18233082 104.91404827 -134.31182861 101.04040527 C-127.80864986 94.5335859 -121.30126129 88.03099902 -114.79150391 81.53076172 C-107.26812098 74.01825436 -99.75195784 66.4985815 -92.2395227 58.9751277 C-85.7896232 52.51614716 -79.33582776 46.0610789 -72.87877107 39.60925341 C-69.02226687 35.75586558 -65.16712262 31.9011433 -61.31548309 28.04289246 C-57.69211942 24.41374444 -54.06388455 20.78953743 -50.43185997 17.16905785 C-49.10066532 15.84050433 -47.77116343 14.51025215 -46.44349861 13.17817116 C-44.62860773 11.35780171 -42.80764603 9.54372568 -40.98504639 7.7310791 C-40.46304586 7.20461713 -39.94104534 6.67815516 -39.40322661 6.1357398 C-28.26397786 -4.88611933 -13.98132255 -7.5636663 0 0 Z " fill="#8467E5" transform="translate(568,713)"/>
<path d="M0 0 C6.39581228 4.73336288 11.88456105 10.57916023 17.42236328 16.26538086 C19.52531266 18.41754181 21.6597567 20.53801252 23.7890625 22.6640625 C24.86505845 23.75083188 25.94054901 24.83810179 27.015625 25.92578125 C28.14840585 27.06773973 29.28121879 28.20966638 30.4140625 29.3515625 C30.98640625 29.93228516 31.55875 30.51300781 32.1484375 31.11132812 C32.70273437 31.66884766 33.25703125 32.22636719 33.828125 32.80078125 C34.57376709 33.55427856 34.57376709 33.55427856 35.33447266 34.32299805 C36.95650928 35.88848183 36.95650928 35.88848183 39.7890625 37.6640625 C39.7890625 38.3240625 39.7890625 38.9840625 39.7890625 39.6640625 C40.3665625 39.8909375 40.9440625 40.1178125 41.5390625 40.3515625 C44.38497631 42.01167889 45.78748171 44.05594207 47.7890625 46.6640625 C50.28435705 49.28732088 52.74229395 51.62768696 55.6015625 53.8515625 C56.3234375 54.4496875 57.0453125 55.0478125 57.7890625 55.6640625 C57.7890625 56.3240625 57.7890625 56.9840625 57.7890625 57.6640625 C58.7790625 57.9940625 59.7690625 58.3240625 60.7890625 58.6640625 C62.49790255 60.28746055 64.16352967 61.95725303 65.7890625 63.6640625 C66.3871875 64.2209375 66.9853125 64.7778125 67.6015625 65.3515625 C68.7890625 66.6640625 68.7890625 66.6640625 68.7890625 68.6640625 C69.4490625 68.6640625 70.1090625 68.6640625 70.7890625 68.6640625 C71.94750735 70.0610107 73.10127967 71.4621117 74.23046875 72.8828125 C75.96761554 74.86812311 77.8413829 76.51959435 79.8515625 78.2265625 C82.89964167 80.8162839 85.3405066 83.49000856 87.7890625 86.6640625 C88.7790625 87.3240625 89.7690625 87.9840625 90.7890625 88.6640625 C90.7890625 89.3240625 90.7890625 89.9840625 90.7890625 90.6640625 C91.4490625 90.6640625 92.1090625 90.6640625 92.7890625 90.6640625 C95.4140625 93.0390625 95.4140625 93.0390625 97.7890625 95.6640625 C97.7890625 96.3240625 97.7890625 96.9840625 97.7890625 97.6640625 C98.3459375 97.8909375 98.9028125 98.1178125 99.4765625 98.3515625 C103.75218127 100.77826504 106.92823069 104.09656623 108.7890625 108.6640625 C109.4490625 108.6640625 110.1090625 108.6640625 110.7890625 108.6640625 C110.7890625 109.3240625 110.7890625 109.9840625 110.7890625 110.6640625 C111.36153497 110.91218941 111.93400743 111.16031631 112.52382755 111.41596222 C115.14090986 112.85792353 116.91273365 114.52713614 119.03282166 116.63366699 C119.87250992 117.46338013 120.71219818 118.29309326 121.57733154 119.14794922 C122.49016907 120.06012207 123.40300659 120.97229492 124.34350586 121.91210938 C125.3208023 122.88178169 126.29849915 123.8510506 127.27656555 124.81994629 C129.93033946 127.45178547 132.57752134 130.09015882 135.22288966 132.73044395 C136.87827953 134.38218716 138.53495946 136.03262522 140.19207954 137.68263245 C145.98038036 143.44643633 151.76293463 149.21594189 157.54077148 154.99023438 C162.91392183 160.35975566 168.3000391 165.71602324 173.69229406 171.06635237 C178.32979047 175.66905986 182.95752337 180.28143629 187.57800585 184.90122271 C190.33381973 187.65624631 193.09340407 190.40720765 195.86308098 193.14830017 C198.47209304 195.73098614 201.06866627 198.32558034 203.65655327 200.9294281 C205.05111373 202.3266454 206.45796215 203.71156507 207.86526489 205.09594727 C214.88628038 212.19832776 220.06806742 219.59831075 221.1015625 229.7265625 C220.48895532 237.44541291 218.11565914 243.60986196 212.81811523 249.31323242 C212.01509979 250.1793515 211.21208435 251.04547058 210.38473511 251.93783569 C205.88933613 256.65933915 201.34846391 261.33235129 196.76171875 265.96484375 C196.25289091 266.47899527 195.74406307 266.99314678 195.21981621 267.52287865 C192.53355117 270.23558507 189.84381462 272.94479902 187.15161133 275.65161133 C184.94628827 277.87032423 182.74849227 280.09610856 180.55688477 282.32836914 C177.87986546 285.05498774 175.1905137 287.76885864 172.49212456 290.47432518 C171.47729705 291.49580423 170.46667703 292.52148369 169.46068001 293.55166054 C162.59053911 300.57764035 156.01785951 306.54235117 146.1015625 308.328125 C130.60421697 308.14537328 122.90850878 300.60248279 112.234375 290.32397461 C110.7890625 288.6640625 110.7890625 288.6640625 109.78125 286.52172852 C108.87375416 284.31016807 108.87375416 284.31016807 105.7890625 283.6640625 C104.2109375 282.0625 104.2109375 282.0625 102.5390625 280.0390625 C99.14219922 276.03305708 95.53728975 272.33798569 91.7890625 268.6640625 C90.12155613 266.99823596 88.45507972 265.33137836 86.7890625 263.6640625 C85.70838059 262.58328608 84.62764855 261.50255978 83.546875 260.421875 C60.40885417 237.28385417 37.27083333 214.14583333 14.1328125 191.0078125 C13.37113266 190.24641464 12.60945282 189.48501678 11.82469177 188.70054626 C10.60059283 187.47593348 9.37737564 186.25043705 8.15589905 185.02320862 C5.91963995 182.77699083 3.66271134 180.63074448 1.2265625 178.6015625 C-1.3743504 176.39249019 -3.93341685 174.21488562 -6.2109375 171.6640625 C-6.2109375 171.0040625 -6.2109375 170.3440625 -6.2109375 169.6640625 C-7.2009375 169.3340625 -8.1909375 169.0040625 -9.2109375 168.6640625 C-10.92202439 167.04303282 -12.58347056 165.36902787 -14.2109375 163.6640625 C-15.1390625 162.7771875 -16.0671875 161.8903125 -17.0234375 160.9765625 C-19.2109375 158.6640625 -19.2109375 158.6640625 -19.2109375 156.6640625 C-19.7439296 156.45540558 -20.27692169 156.24674866 -20.82606506 156.0317688 C-24.16160034 154.11886455 -26.67650668 151.48491839 -29.36889648 148.78076172 C-29.97592407 148.17884506 -30.58295166 147.57692841 -31.20837402 146.95677185 C-33.2131269 144.9659146 -35.21036711 142.96771728 -37.20703125 140.96875 C-38.60159199 139.57807755 -39.99637577 138.18762872 -41.39137268 136.7973938 C-44.31585225 133.8803774 -47.23642403 130.95951363 -50.15454102 128.03613281 C-53.88279138 124.30210237 -57.62224757 120.57952713 -61.36498928 116.86002922 C-64.25025649 113.98954552 -67.12851178 111.11210921 -70.00483894 108.23266983 C-71.3799172 106.85810294 -72.75734299 105.48588009 -74.13720512 104.11611557 C-76.07329442 102.19245594 -77.99948203 100.25937067 -79.92358398 98.32373047 C-80.48841995 97.76653824 -81.05325592 97.20934601 -81.63520813 96.63526917 C-88.44998135 89.73050657 -93.15691557 82.28156678 -93.5859375 72.4140625 C-93.08969981 53.11302804 -73.49848384 39.67496541 -60.85522461 26.95825195 C-58.79540286 24.88503883 -56.74312626 22.80476806 -54.69702148 20.71801758 C-52.19508323 18.16644157 -49.68079071 15.62766412 -47.15745354 13.0972538 C-45.75470313 11.68467004 -44.3641611 10.25999563 -42.97401428 8.83500671 C-31.08644025 -3.01367525 -15.62162718 -9.43921643 0 0 Z " fill="#8467E5" transform="translate(703.2109375,570.3359375)"/>
<path d="M0 0 C4.66874537 3.89976721 9.09127809 7.95214644 13.37109375 12.2734375 C13.93828629 12.84204498 14.50547882 13.41065247 15.08985901 13.99649048 C16.87479913 15.78696236 18.65620256 17.58090484 20.4375 19.375 C21.65796939 20.60049323 22.87867053 21.82575572 24.09960938 23.05078125 C27.06908756 26.03119774 30.03540257 29.01472894 33 32 C32.505 32.99 32.505 32.99 32 34 C25.41911636 29.42711491 19.81797568 24.12072018 14.1875 18.4375 C13.34251953 17.60025391 12.49753906 16.76300781 11.62695312 15.90039062 C10.81548828 15.08634766 10.00402344 14.27230469 9.16796875 13.43359375 C8.43860107 12.70197021 7.7092334 11.97034668 6.95776367 11.21655273 C3.9545245 7.81632722 2.00220289 4.0394419 0 0 Z " fill="#8263D8" transform="translate(232,792)"/>
<path d="M0 0 C0.66 0.33 1.32 0.66 2 1 C1.18595703 1.77923828 1.18595703 1.77923828 0.35546875 2.57421875 C-3.37260794 6.20825386 -6.38463736 9.48255544 -9 14 C-10.89755109 16.16641392 -12.86616096 18.04776429 -15 20 C-15.66 20 -16.32 20 -17 20 C-17.268125 20.639375 -17.53625 21.27875 -17.8125 21.9375 C-19 24 -19 24 -22 25 C-22.33 25.99 -22.66 26.98 -23 28 C-23.66 28 -24.32 28 -25 28 C-25.268125 28.639375 -25.53625 29.27875 -25.8125 29.9375 C-27 32 -27 32 -30 33 C-30.33 33.99 -30.66 34.98 -31 36 C-31.66 35.67 -32.32 35.34 -33 35 C-29.95196892 30.04530013 -26.40454961 26.13961885 -22.265625 22.0703125 C-21.62759949 21.43511688 -20.98957397 20.79992126 -20.33221436 20.14547729 C-18.30948828 18.13387395 -16.27989279 16.12936863 -14.25 14.125 C-12.87063265 12.75567266 -11.49172152 11.38588559 -10.11328125 10.015625 C-6.74744234 6.67174149 -3.3754281 3.33420247 0 0 Z " fill="#8564DF" transform="translate(519,629)"/>
<path d="M0 0 C4.9841289 4.18436495 9.70917483 8.52661933 14.3125 13.125 C14.93189453 13.73214844 15.55128906 14.33929687 16.18945312 14.96484375 C16.78306641 15.55652344 17.37667969 16.14820313 17.98828125 16.7578125 C18.51977783 17.2852002 19.05127441 17.81258789 19.59887695 18.35595703 C21.11396279 20.1337211 22.01198137 21.89204671 23 24 C23.84042042 25.11037364 24.71479212 26.19607509 25.625 27.25 C26.40875 28.1575 27.1925 29.065 28 30 C24.84164893 28.60249952 22.67727175 26.94801766 20.25 24.5 C19.32960938 23.58734375 19.32960938 23.58734375 18.390625 22.65625 C17 21 17 21 17 19 C16.12021484 18.60748047 16.12021484 18.60748047 15.22265625 18.20703125 C9.81220213 15.26884088 5.94609395 10.30296911 3 5 C2.443125 4.443125 1.88625 3.88625 1.3125 3.3125 C0.879375 2.879375 0.44625 2.44625 0 2 C0 1.34 0 0.68 0 0 Z " fill="#8062D3" transform="translate(353,934)"/>
<path d="M0 0 C4.28633193 1.39430875 6.72265098 3.36889584 9.86328125 6.5703125 C10.74951172 7.46621094 11.63574219 8.36210938 12.54882812 9.28515625 C13.46083984 10.22230469 14.37285156 11.15945313 15.3125 12.125 C16.25255572 13.08011605 17.19330431 14.03455067 18.13476562 14.98828125 C20.43008067 17.31890883 22.71809646 19.65625196 25 22 C21.48336486 22 20.68152977 21.32212716 17.9375 19.25 C17.24527344 18.73953125 16.55304687 18.2290625 15.83984375 17.703125 C14 16 14 16 13.00390625 13.921875 C11.7159261 11.45616981 10.48607361 11.16137745 8 10 C6.53657192 8.71816519 5.12054571 7.3806979 3.75 6 C3.04359375 5.29875 2.3371875 4.5975 1.609375 3.875 C0 2 0 2 0 0 Z " fill="#8262D8" transform="translate(584,879)"/>
<path d="M0 0 C0.64697266 1.81811523 0.64697266 1.81811523 1 4 C-0.81201549 6.24244442 -2.54285068 8.10297148 -4.625 10.0625 C-5.15996094 10.59166016 -5.69492187 11.12082031 -6.24609375 11.66601562 C-9.25621838 14.58459145 -12.18082275 17.1708151 -16 19 C-16.66 18.67 -17.32 18.34 -18 18 C-17.04882866 16.8274869 -16.08882991 15.66212985 -15.125 14.5 C-14.59132813 13.8503125 -14.05765625 13.200625 -13.5078125 12.53125 C-12.76144531 11.77328125 -12.76144531 11.77328125 -12 11 C-11.34 11 -10.68 11 -10 11 C-9.34 9.68 -8.68 8.36 -8 7 C-7.34 7 -6.68 7 -6 7 C-5.7525 6.401875 -5.505 5.80375 -5.25 5.1875 C-3.83629988 2.71352479 -2.34944617 1.56629745 0 0 Z " fill="#7F61D4" transform="translate(290,685)"/>
<path d="M0 0 C0.66 0.33 1.32 0.66 2 1 C0.61843085 4.20207659 -0.89803896 6.01352391 -3.58203125 8.21875 C-8.16984109 12.10528477 -12.43544913 16.25174899 -16.6875 20.5 C-17.42033203 21.22058594 -18.15316406 21.94117188 -18.90820312 22.68359375 C-23.10941438 26.87344014 -26.70612994 31.0624433 -30 36 C-30.33 35.34 -30.66 34.68 -31 34 C-25.80608694 26.86788121 -19.93002806 20.71697385 -13.625 14.5625 C-11.82336199 12.79516681 -10.02377005 11.0257446 -8.2265625 9.25390625 C-7.43846191 8.48377197 -6.65036133 7.7136377 -5.83837891 6.92016602 C-3.94041182 5.12708545 -3.94041182 5.12708545 -3 3 C-2.34 3 -1.68 3 -1 3 C-0.67 2.01 -0.34 1.02 0 0 Z " fill="#7258BD" transform="translate(380,868)"/>
<path d="M0 0 C-0.47205119 4.24846075 -2.88877522 6.26819288 -6 9 C-6.66 9 -7.32 9 -8 9 C-8.38478516 9.89332031 -8.38478516 9.89332031 -8.77734375 10.8046875 C-10.10969687 13.19696371 -11.43368605 14.42728199 -13.5625 16.125 C-16.21025666 18.20903634 -16.21025666 18.20903634 -18 21 C-18.66 20.67 -19.32 20.34 -20 20 C-19.505 18.515 -19.505 18.515 -19 17 C-18.34 17 -17.68 17 -17 17 C-16.73123047 16.40670898 -16.46246094 15.81341797 -16.18554688 15.20214844 C-14.99709268 12.99459967 -13.79257611 11.53457118 -12.03125 9.765625 C-11.17466797 8.90517578 -11.17466797 8.90517578 -10.30078125 8.02734375 C-9.70652344 7.44082031 -9.11226563 6.85429688 -8.5 6.25 C-7.90574219 5.64800781 -7.31148438 5.04601562 -6.69921875 4.42578125 C-6.12816406 3.85730469 -5.55710937 3.28882813 -4.96875 2.703125 C-4.44732422 2.18395508 -3.92589844 1.66478516 -3.38867188 1.12988281 C-2 0 -2 0 0 0 Z " fill="#8465DF" transform="translate(351,800)"/>
<path d="M0 0 C0 3 0 3 -2.375 5.6875 C-5 8 -5 8 -7 8 C-7.185625 8.5775 -7.37125 9.155 -7.5625 9.75 C-9.70551122 13.10427843 -12.48822563 14.17907996 -16 16 C-14.48903853 12.45287654 -12.41167865 10.14336485 -9.6875 7.4375 C-8.92824219 6.67308594 -8.16898437 5.90867187 -7.38671875 5.12109375 C-5.04960156 3.04408126 -2.72886923 1.51174526 0 0 Z " fill="#7F5FD5" transform="translate(477,673)"/>
<path d="M0 0 C0 0.99 0 1.98 0 3 C-0.639375 3.268125 -1.27875 3.53625 -1.9375 3.8125 C-4.33131686 4.88667752 -4.33131686 4.88667752 -5 8 C-5.66 8 -6.32 8 -7 8 C-7.268125 8.639375 -7.53625 9.27875 -7.8125 9.9375 C-9 12 -9 12 -12 13 C-12.33 13.99 -12.66 14.98 -13 16 C-13.66 15.67 -14.32 15.34 -15 15 C-11.23002136 8.99595995 -7.29397169 4.49665094 -1 1 C-0.67 0.67 -0.34 0.34 0 0 Z " fill="#7C5CCD" transform="translate(501,649)"/>
<path d="M0 0 C0 3 0 3 -2.265625 5.59375 C-3.25278939 6.57027111 -4.2479569 7.53875255 -5.25 8.5 C-5.98669922 9.22896484 -5.98669922 9.22896484 -6.73828125 9.97265625 C-9.35447016 12.53303313 -12.00707352 14.89069944 -15 17 C-15.66 16.67 -16.32 16.34 -17 16 C-15.77937479 14.55524014 -14.54807874 13.11949236 -13.3125 11.6875 C-12.62800781 10.88699219 -11.94351562 10.08648438 -11.23828125 9.26171875 C-8.97293166 6.97264823 -6.78882571 5.57788823 -4 4 C-2.63015802 2.70420353 -1.2848951 1.38007251 0 0 Z " fill="#8265D9" transform="translate(399,851)"/>
<path d="M0 0 C5.36320234 2.22376682 9.43898725 5.43837209 13 10 C13.69921875 12.22265625 13.69921875 12.22265625 14 14 C12 14 12 14 9.875 12.125 C8 10 8 10 8 8 C7.4225 7.7525 6.845 7.505 6.25 7.25 C3.67060021 5.81700012 1.93878408 4.21575324 0 2 C0 1.34 0 0.68 0 0 Z " fill="#7C5FCF" transform="translate(261,823)"/>
<path d="M0 0 C0.66 0.33 1.32 0.66 2 1 C1.31292969 1.66386719 0.62585938 2.32773437 -0.08203125 3.01171875 C-1.43361328 4.33623047 -1.43361328 4.33623047 -2.8125 5.6875 C-3.70582031 6.55761719 -4.59914063 7.42773438 -5.51953125 8.32421875 C-7.79336188 10.77709116 -9.30897191 13.14135728 -11 16 C-13.1875 16.8125 -13.1875 16.8125 -15 17 C-15 16.34 -15 15.68 -15 15 C-14.34 15 -13.68 15 -13 15 C-12.78601563 14.45859375 -12.57203125 13.9171875 -12.3515625 13.359375 C-10.51922057 10.1607203 -8.00203394 7.79035516 -5.375 5.25 C-4.859375 4.74339844 -4.34375 4.23679687 -3.8125 3.71484375 C-2.54616661 2.47196098 -1.2736856 1.23534724 0 0 Z " fill="#7257BA" transform="translate(306,668)"/>
<path d="M0 0 C0 0.99 0 1.98 0 3 C-0.99 3.33 -1.98 3.66 -3 4 C-3.433125 4.928125 -3.433125 4.928125 -3.875 5.875 C-5.35958123 8.67920898 -7.23974247 9.54723288 -10 11 C-10 8 -10 8 -8.57421875 6.2109375 C-7.95160156 5.60507812 -7.32898438 4.99921875 -6.6875 4.375 C-6.07261719 3.76398437 -5.45773437 3.15296875 -4.82421875 2.5234375 C-3 1 -3 1 0 0 Z " fill="#7E5FD3" transform="translate(326,825)"/>
<path d="M0 0 C2.03833424 1.2739589 4.03852126 2.61061923 6 4 C6 4.66 6 5.32 6 6 C6.99 6.33 7.98 6.66 9 7 C8.67 8.32 8.34 9.64 8 11 C6.65772182 9.73861805 5.32641323 8.46555441 4 7.1875 C3.2575 6.47980469 2.515 5.77210938 1.75 5.04296875 C0 3 0 3 0 0 Z " fill="#7F61D3" transform="translate(755,622)"/>
<path d="M0 0 C4.34361288 1.18462169 7.28300842 2.30489146 10 6 C9.59765625 8.1328125 9.59765625 8.1328125 9 10 C7.49702124 8.52386015 5.99768715 7.04400843 4.5 5.5625 C3.6646875 4.73878906 2.829375 3.91507813 1.96875 3.06640625 C0 1 0 1 0 0 Z " fill="#8464D8" transform="translate(739,608)"/>
<path d="M0 0 C0 3 0 3 -1.71484375 4.75390625 C-2.44832031 5.35074219 -3.18179687 5.94757812 -3.9375 6.5625 C-6.92648955 8.91285524 -6.92648955 8.91285524 -9 12 C-9.66 11.67 -10.32 11.34 -11 11 C-10.67 10.01 -10.34 9.02 -10 8 C-9.34 8 -8.68 8 -8 8 C-7.67 7.01 -7.34 6.02 -7 5 C-5.36368108 3.95107762 -3.69514137 2.95093297 -2 2 C-1.34 1.34 -0.68 0.68 0 0 Z " fill="#775AC9" transform="translate(342,809)"/>
<path d="M0 0 C0.33 0.99 0.66 1.98 1 3 C-1 6 -1 6 -3.125 6.6875 C-3.74375 6.790625 -4.3625 6.89375 -5 7 C-5 6.34 -5 5.68 -5 5 C-4.34 5 -3.68 5 -3 5 C-2.5359375 4.0409375 -2.5359375 4.0409375 -2.0625 3.0625 C-1 1 -1 1 0 0 Z " fill="#795DC7" transform="translate(296,678)"/>
<path d="M0 0 C2 1 2 1 2 1 Z " fill="#535158" transform="translate(874,1117)"/>
<path d="M0 0 C2 1 2 1 2 1 Z " fill="#4D4C4F" transform="translate(1004,1090)"/>
<path d="M0 0 C2 1 2 1 2 1 Z " fill="#8B6BD5" transform="translate(429,970)"/>
<path d="" fill="#8E6FDF" transform="translate(0,0)"/>
<path d="M0 0 C2 1 2 1 2 1 Z " fill="#8F6CDE" transform="translate(684,564)"/>
<path d="" fill="#494747" transform="translate(0,0)"/>
<path d="" fill="#484747" transform="translate(0,0)"/>
<path d="" fill="#494747" transform="translate(0,0)"/>
<path d="" fill="#484746" transform="translate(0,0)"/>
<path d="" fill="#494646" transform="translate(0,0)"/>
<path d="" fill="#474745" transform="translate(0,0)"/>
<path d="" fill="#484646" transform="translate(0,0)"/>
<path d="" fill="#484746" transform="translate(0,0)"/>
<path d="" fill="#464646" transform="translate(0,0)"/>
<path d="" fill="#484646" transform="translate(0,0)"/>
<path d="" fill="#474646" transform="translate(0,0)"/>
<path d="" fill="#484546" transform="translate(0,0)"/>
<path d="" fill="#494646" transform="translate(0,0)"/>
<path d="" fill="#484747" transform="translate(0,0)"/>
<path d="" fill="#484747" transform="translate(0,0)"/>
<path d="" fill="#474646" transform="translate(0,0)"/>
<path d="" fill="#494747" transform="translate(0,0)"/>
<path d="" fill="#474646" transform="translate(0,0)"/>
<path d="" fill="#484747" transform="translate(0,0)"/>
<path d="" fill="#474547" transform="translate(0,0)"/>
<path d="" fill="#464547" transform="translate(0,0)"/>
<path d="" fill="#464548" transform="translate(0,0)"/>
<path d="" fill="#474747" transform="translate(0,0)"/>
<path d="" fill="#474648" transform="translate(0,0)"/>
<path d="" fill="#464747" transform="translate(0,0)"/>
<path d="" fill="#474546" transform="translate(0,0)"/>
<path d="" fill="#464747" transform="translate(0,0)"/>
<path d="" fill="#454646" transform="translate(0,0)"/>
<path d="" fill="#464646" transform="translate(0,0)"/>
<path d="" fill="#474647" transform="translate(0,0)"/>
<path d="" fill="#464646" transform="translate(0,0)"/>
<path d="" fill="#464547" transform="translate(0,0)"/>
<path d="" fill="#454547" transform="translate(0,0)"/>
<path d="" fill="#454547" transform="translate(0,0)"/>
<path d="" fill="#464646" transform="translate(0,0)"/>
<path d="" fill="#464546" transform="translate(0,0)"/>
<path d="" fill="#474646" transform="translate(0,0)"/>
<path d="" fill="#464648" transform="translate(0,0)"/>
<path d="" fill="#454646" transform="translate(0,0)"/>
<path d="" fill="#474647" transform="translate(0,0)"/>
<path d="" fill="#464747" transform="translate(0,0)"/>
<path d="" fill="#454546" transform="translate(0,0)"/>
<path d="" fill="#464646" transform="translate(0,0)"/>
<path d="" fill="#464745" transform="translate(0,0)"/>
<path d="" fill="#474748" transform="translate(0,0)"/>
<path d="" fill="#464647" transform="translate(0,0)"/>
<path d="" fill="#474848" transform="translate(0,0)"/>
<path d="" fill="#484747" transform="translate(0,0)"/>
<path d="" fill="#484748" transform="translate(0,0)"/>
<path d="" fill="#474847" transform="translate(0,0)"/>
<path d="" fill="#484848" transform="translate(0,0)"/>
<path d="" fill="#484847" transform="translate(0,0)"/>
<path d="" fill="#474747" transform="translate(0,0)"/>
<path d="" fill="#474847" transform="translate(0,0)"/>
<path d="" fill="#474647" transform="translate(0,0)"/>
<path d="" fill="#484648" transform="translate(0,0)"/>
<path d="" fill="#474647" transform="translate(0,0)"/>
<path d="" fill="#484746" transform="translate(0,0)"/>
<path d="" fill="#464748" transform="translate(0,0)"/>
<path d="" fill="#474747" transform="translate(0,0)"/>
<path d="" fill="#484647" transform="translate(0,0)"/>
<path d="" fill="#484748" transform="translate(0,0)"/>
<path d="" fill="#484747" transform="translate(0,0)"/>
<path d="" fill="#484747" transform="translate(0,0)"/>
<path d="" fill="#484747" transform="translate(0,0)"/>
<path d="" fill="#474747" transform="translate(0,0)"/>
<path d="" fill="#484748" transform="translate(0,0)"/>
<path d="" fill="#474748" transform="translate(0,0)"/>
<path d="" fill="#484748" transform="translate(0,0)"/>
<path d="" fill="#484747" transform="translate(0,0)"/>
<path d="" fill="#474747" transform="translate(0,0)"/>
<path d="" fill="#484748" transform="translate(0,0)"/>
<path d="" fill="#494849" transform="translate(0,0)"/>
<path d="" fill="#484849" transform="translate(0,0)"/>
<path d="" fill="#494849" transform="translate(0,0)"/>
<path d="" fill="#494849" transform="translate(0,0)"/>
<path d="" fill="#474748" transform="translate(0,0)"/>
<path d="" fill="#474847" transform="translate(0,0)"/>
<path d="" fill="#464746" transform="translate(0,0)"/>
<path d="" fill="#464748" transform="translate(0,0)"/>
<path d="" fill="#474646" transform="translate(0,0)"/>
<path d="" fill="#464647" transform="translate(0,0)"/>
<path d="" fill="#464746" transform="translate(0,0)"/>
<path d="" fill="#454646" transform="translate(0,0)"/>
<path d="" fill="#454647" transform="translate(0,0)"/>
<path d="" fill="#474648" transform="translate(0,0)"/>
<path d="" fill="#474648" transform="translate(0,0)"/>
<path d="" fill="#474646" transform="translate(0,0)"/>
<path d="" fill="#464648" transform="translate(0,0)"/>
<path d="" fill="#464647" transform="translate(0,0)"/>
<path d="" fill="#464748" transform="translate(0,0)"/>
<path d="" fill="#474747" transform="translate(0,0)"/>
<path d="" fill="#474847" transform="translate(0,0)"/>
<path d="" fill="#474748" transform="translate(0,0)"/>
<path d="" fill="#474646" transform="translate(0,0)"/>
<path d="" fill="#474748" transform="translate(0,0)"/>
<path d="" fill="#484748" transform="translate(0,0)"/>
<path d="" fill="#484849" transform="translate(0,0)"/>
<path d="" fill="#474746" transform="translate(0,0)"/>
<path d="" fill="#474648" transform="translate(0,0)"/>
<path d="" fill="#474746" transform="translate(0,0)"/>
<path d="" fill="#454646" transform="translate(0,0)"/>
<path d="" fill="#474747" transform="translate(0,0)"/>
<path d="" fill="#454745" transform="translate(0,0)"/>
<path d="" fill="#454646" transform="translate(0,0)"/>
<path d="" fill="#454545" transform="translate(0,0)"/>
<path d="" fill="#454546" transform="translate(0,0)"/>
<path d="" fill="#464547" transform="translate(0,0)"/>
<path d="" fill="#454645" transform="translate(0,0)"/>
<path d="" fill="#464647" transform="translate(0,0)"/>
<path d="" fill="#464546" transform="translate(0,0)"/>
<path d="" fill="#454647" transform="translate(0,0)"/>
<path d="" fill="#454547" transform="translate(0,0)"/>
<path d="" fill="#454645" transform="translate(0,0)"/>
<path d="" fill="#464646" transform="translate(0,0)"/>
<path d="" fill="#464746" transform="translate(0,0)"/>
<path d="" fill="#454545" transform="translate(0,0)"/>
<path d="" fill="#464546" transform="translate(0,0)"/>
<path d="" fill="#454545" transform="translate(0,0)"/>
<path d="" fill="#454646" transform="translate(0,0)"/>
<path d="" fill="#474646" transform="translate(0,0)"/>
<path d="" fill="#464545" transform="translate(0,0)"/>
<path d="" fill="#464546" transform="translate(0,0)"/>
<path d="" fill="#454546" transform="translate(0,0)"/>
<path d="" fill="#464546" transform="translate(0,0)"/>
<path d="" fill="#464646" transform="translate(0,0)"/>
<path d="" fill="#454545" transform="translate(0,0)"/>
<path d="" fill="#464546" transform="translate(0,0)"/>
<path d="" fill="#454647" transform="translate(0,0)"/>
<path d="" fill="#454546" transform="translate(0,0)"/>
<path d="" fill="#464646" transform="translate(0,0)"/>
<path d="" fill="#464646" transform="translate(0,0)"/>
<path d="" fill="#454546" transform="translate(0,0)"/>
<path d="" fill="#454546" transform="translate(0,0)"/>
<path d="" fill="#454546" transform="translate(0,0)"/>
<path d="" fill="#464546" transform="translate(0,0)"/>
<path d="" fill="#454645" transform="translate(0,0)"/>
<path d="" fill="#464547" transform="translate(0,0)"/>
<path d="" fill="#464546" transform="translate(0,0)"/>
<path d="" fill="#464646" transform="translate(0,0)"/>
<path d="" fill="#454546" transform="translate(0,0)"/>
<path d="" fill="#454545" transform="translate(0,0)"/>
<path d="" fill="#454547" transform="translate(0,0)"/>
<path d="" fill="#474747" transform="translate(0,0)"/>
<path d="" fill="#454646" transform="translate(0,0)"/>
<path d="" fill="#464647" transform="translate(0,0)"/>
<path d="" fill="#464546" transform="translate(0,0)"/>
<path d="" fill="#464747" transform="translate(0,0)"/>
<path d="" fill="#454646" transform="translate(0,0)"/>
<path d="" fill="#454646" transform="translate(0,0)"/>
<path d="" fill="#454546" transform="translate(0,0)"/>
<path d="" fill="#464646" transform="translate(0,0)"/>
<path d="" fill="#454646" transform="translate(0,0)"/>
<path d="" fill="#454546" transform="translate(0,0)"/>
<path d="" fill="#464646" transform="translate(0,0)"/>
<path d="" fill="#464646" transform="translate(0,0)"/>
<path d="" fill="#454647" transform="translate(0,0)"/>
<path d="" fill="#464647" transform="translate(0,0)"/>
<path d="" fill="#464446" transform="translate(0,0)"/>
<path d="" fill="#454446" transform="translate(0,0)"/>
<path d="" fill="#454646" transform="translate(0,0)"/>
<path d="" fill="#464546" transform="translate(0,0)"/>
<path d="" fill="#464646" transform="translate(0,0)"/>
<path d="" fill="#464746" transform="translate(0,0)"/>
<path d="" fill="#474546" transform="translate(0,0)"/>
<path d="" fill="#474646" transform="translate(0,0)"/>
<path d="" fill="#464648" transform="translate(0,0)"/>
<path d="" fill="#464746" transform="translate(0,0)"/>
<path d="" fill="#474646" transform="translate(0,0)"/>
<path d="" fill="#474747" transform="translate(0,0)"/>
<path d="" fill="#474647" transform="translate(0,0)"/>
<path d="" fill="#464747" transform="translate(0,0)"/>
<path d="" fill="#474746" transform="translate(0,0)"/>
<path d="" fill="#454748" transform="translate(0,0)"/>
<path d="" fill="#464646" transform="translate(0,0)"/>
<path d="" fill="#474647" transform="translate(0,0)"/>
<path d="" fill="#464746" transform="translate(0,0)"/>
<path d="" fill="#464747" transform="translate(0,0)"/>
<path d="" fill="#474747" transform="translate(0,0)"/>
<path d="" fill="#474747" transform="translate(0,0)"/>
<path d="" fill="#474748" transform="translate(0,0)"/>
<path d="" fill="#474748" transform="translate(0,0)"/>
<path d="" fill="#474748" transform="translate(0,0)"/>
<path d="" fill="#464649" transform="translate(0,0)"/>
<path d="" fill="#464748" transform="translate(0,0)"/>
<path d="" fill="#474747" transform="translate(0,0)"/>
<path d="" fill="#484647" transform="translate(0,0)"/>
<path d="" fill="#484645" transform="translate(0,0)"/>
<path d="" fill="#484547" transform="translate(0,0)"/>
<path d="" fill="#474648" transform="translate(0,0)"/>
<path d="" fill="#474648" transform="translate(0,0)"/>
<path d="" fill="#484748" transform="translate(0,0)"/>
<path d="" fill="#464547" transform="translate(0,0)"/>
<path d="" fill="#464647" transform="translate(0,0)"/>
<path d="" fill="#464648" transform="translate(0,0)"/>
<path d="" fill="#464648" transform="translate(0,0)"/>
<path d="" fill="#464547" transform="translate(0,0)"/>
<path d="" fill="#464548" transform="translate(0,0)"/>
<path d="" fill="#464447" transform="translate(0,0)"/>
<path d="" fill="#464647" transform="translate(0,0)"/>
<path d="" fill="#474648" transform="translate(0,0)"/>
<path d="" fill="#454648" transform="translate(0,0)"/>
<path d="" fill="#464548" transform="translate(0,0)"/>
<path d="" fill="#474548" transform="translate(0,0)"/>
<path d="" fill="#464548" transform="translate(0,0)"/>
<path d="" fill="#474647" transform="translate(0,0)"/>
<path d="" fill="#474548" transform="translate(0,0)"/>
<path d="" fill="#474648" transform="translate(0,0)"/>
<path d="" fill="#484448" transform="translate(0,0)"/>
<path d="" fill="#484748" transform="translate(0,0)"/>
<path d="" fill="#484748" transform="translate(0,0)"/>
<path d="" fill="#484749" transform="translate(0,0)"/>
<path d="" fill="#494749" transform="translate(0,0)"/>
<path d="" fill="#474749" transform="translate(0,0)"/>
<path d="" fill="#474649" transform="translate(0,0)"/>
<path d="" fill="#474747" transform="translate(0,0)"/>
<path d="" fill="#474746" transform="translate(0,0)"/>
<path d="" fill="#484646" transform="translate(0,0)"/>
<path d="" fill="#484846" transform="translate(0,0)"/>
<path d="" fill="#494846" transform="translate(0,0)"/>
<path d="" fill="#444444" transform="translate(0,0)"/>
<path d="" fill="#454344" transform="translate(0,0)"/>
<path d="" fill="#454445" transform="translate(0,0)"/>
<path d="" fill="#454344" transform="translate(0,0)"/>
<path d="" fill="#454446" transform="translate(0,0)"/>
<path d="" fill="#454545" transform="translate(0,0)"/>
<path d="" fill="#464545" transform="translate(0,0)"/>
<path d="" fill="#474748" transform="translate(0,0)"/>
<path d="" fill="#474647" transform="translate(0,0)"/>
<path d="" fill="#474747" transform="translate(0,0)"/>
<path d="" fill="#464647" transform="translate(0,0)"/>
<path d="" fill="#464746" transform="translate(0,0)"/>
<path d="" fill="#464647" transform="translate(0,0)"/>
<path d="" fill="#464647" transform="translate(0,0)"/>
<path d="" fill="#454748" transform="translate(0,0)"/>
<path d="" fill="#464648" transform="translate(0,0)"/>
<path d="" fill="#474647" transform="translate(0,0)"/>
<path d="" fill="#474747" transform="translate(0,0)"/>
<path d="" fill="#464748" transform="translate(0,0)"/>
<path d="" fill="#464547" transform="translate(0,0)"/>
<path d="" fill="#464546" transform="translate(0,0)"/>
<path d="" fill="#454647" transform="translate(0,0)"/>
<path d="" fill="#444647" transform="translate(0,0)"/>
<path d="" fill="#464646" transform="translate(0,0)"/>
<path d="" fill="#454646" transform="translate(0,0)"/>
<path d="" fill="#454646" transform="translate(0,0)"/>
<path d="" fill="#464547" transform="translate(0,0)"/>
<path d="" fill="#464647" transform="translate(0,0)"/>
<path d="" fill="#464547" transform="translate(0,0)"/>
<path d="" fill="#464648" transform="translate(0,0)"/>
<path d="" fill="#464748" transform="translate(0,0)"/>
<path d="" fill="#464747" transform="translate(0,0)"/>
<path d="" fill="#454748" transform="translate(0,0)"/>
<path d="" fill="#464747" transform="translate(0,0)"/>
<path d="" fill="#474647" transform="translate(0,0)"/>
<path d="" fill="#464647" transform="translate(0,0)"/>
<path d="" fill="#474748" transform="translate(0,0)"/>
<path d="" fill="#474749" transform="translate(0,0)"/>
<path d="" fill="#474848" transform="translate(0,0)"/>
<path d="" fill="#474848" transform="translate(0,0)"/>
<path d="" fill="#474849" transform="translate(0,0)"/>
<path d="" fill="#474649" transform="translate(0,0)"/>
<path d="" fill="#474648" transform="translate(0,0)"/>
<path d="" fill="#474649" transform="translate(0,0)"/>
<path d="" fill="#474749" transform="translate(0,0)"/>
<path d="" fill="#474649" transform="translate(0,0)"/>
<path d="" fill="#474648" transform="translate(0,0)"/>
<path d="" fill="#474648" transform="translate(0,0)"/>
<path d="" fill="#474649" transform="translate(0,0)"/>
<path d="" fill="#474649" transform="translate(0,0)"/>
<path d="" fill="#464648" transform="translate(0,0)"/>
<path d="" fill="#464548" transform="translate(0,0)"/>
<path d="" fill="#464548" transform="translate(0,0)"/>
<path d="" fill="#474548" transform="translate(0,0)"/>
<path d="" fill="#474548" transform="translate(0,0)"/>
<path d="" fill="#464549" transform="translate(0,0)"/>
<path d="" fill="#454548" transform="translate(0,0)"/>
<path d="" fill="#464648" transform="translate(0,0)"/>
<path d="" fill="#454547" transform="translate(0,0)"/>
<path d="" fill="#464447" transform="translate(0,0)"/>
<path d="" fill="#454547" transform="translate(0,0)"/>
<path d="" fill="#464447" transform="translate(0,0)"/>
<path d="" fill="#464447" transform="translate(0,0)"/>
<path d="" fill="#454447" transform="translate(0,0)"/>
<path d="" fill="#464548" transform="translate(0,0)"/>
<path d="" fill="#464547" transform="translate(0,0)"/>
<path d="" fill="#464447" transform="translate(0,0)"/>
<path d="" fill="#464548" transform="translate(0,0)"/>
<path d="" fill="#464548" transform="translate(0,0)"/>
<path d="" fill="#464548" transform="translate(0,0)"/>
<path d="" fill="#464448" transform="translate(0,0)"/>
<path d="" fill="#474548" transform="translate(0,0)"/>
<path d="" fill="#454548" transform="translate(0,0)"/>
<path d="" fill="#464649" transform="translate(0,0)"/>
<path d="" fill="#464548" transform="translate(0,0)"/>
<path d="" fill="#464448" transform="translate(0,0)"/>
<path d="" fill="#454347" transform="translate(0,0)"/>
<path d="" fill="#464548" transform="translate(0,0)"/>
<path d="" fill="#464547" transform="translate(0,0)"/>
<path d="" fill="#454447" transform="translate(0,0)"/>
<path d="" fill="#454447" transform="translate(0,0)"/>
<path d="" fill="#454447" transform="translate(0,0)"/>
<path d="" fill="#454447" transform="translate(0,0)"/>
<path d="" fill="#454548" transform="translate(0,0)"/>
<path d="" fill="#454447" transform="translate(0,0)"/>
<path d="" fill="#474447" transform="translate(0,0)"/>
<path d="" fill="#464447" transform="translate(0,0)"/>
<path d="" fill="#464447" transform="translate(0,0)"/>
<path d="" fill="#464547" transform="translate(0,0)"/>
<path d="" fill="#464548" transform="translate(0,0)"/>
<path d="" fill="#464548" transform="translate(0,0)"/>
<path d="" fill="#464447" transform="translate(0,0)"/>
<path d="" fill="#464448" transform="translate(0,0)"/>
<path d="" fill="#464548" transform="translate(0,0)"/>
<path d="" fill="#464548" transform="translate(0,0)"/>
<path d="" fill="#464548" transform="translate(0,0)"/>
<path d="" fill="#474548" transform="translate(0,0)"/>
<path d="" fill="#464548" transform="translate(0,0)"/>
<path d="" fill="#484748" transform="translate(0,0)"/>
<path d="" fill="#464447" transform="translate(0,0)"/>
<path d="" fill="#464547" transform="translate(0,0)"/>
<path d="" fill="#464649" transform="translate(0,0)"/>
<path d="" fill="#464548" transform="translate(0,0)"/>
<path d="" fill="#464548" transform="translate(0,0)"/>
<path d="" fill="#464548" transform="translate(0,0)"/>
<path d="" fill="#464547" transform="translate(0,0)"/>
<path d="" fill="#464549" transform="translate(0,0)"/>
<path d="" fill="#464548" transform="translate(0,0)"/>
<path d="" fill="#474648" transform="translate(0,0)"/>
<path d="" fill="#474748" transform="translate(0,0)"/>
<path d="" fill="#474648" transform="translate(0,0)"/>
<path d="" fill="#474549" transform="translate(0,0)"/>
<path d="" fill="#464547" transform="translate(0,0)"/>
<path d="" fill="#474549" transform="translate(0,0)"/>
<path d="" fill="#464547" transform="translate(0,0)"/>
<path d="" fill="#464548" transform="translate(0,0)"/>
<path d="" fill="#464448" transform="translate(0,0)"/>
<path d="" fill="#474649" transform="translate(0,0)"/>
<path d="" fill="#464548" transform="translate(0,0)"/>
<path d="" fill="#474647" transform="translate(0,0)"/>
<path d="" fill="#464549" transform="translate(0,0)"/>
<path d="" fill="#474548" transform="translate(0,0)"/>
<path d="" fill="#484749" transform="translate(0,0)"/>
<path d="" fill="#464648" transform="translate(0,0)"/>
<path d="" fill="#474649" transform="translate(0,0)"/>
<path d="" fill="#464648" transform="translate(0,0)"/>
<path d="" fill="#474548" transform="translate(0,0)"/>
<path d="" fill="#474649" transform="translate(0,0)"/>
<path d="" fill="#464649" transform="translate(0,0)"/>
<path d="" fill="#474748" transform="translate(0,0)"/>
<path d="" fill="#464648" transform="translate(0,0)"/>
<path d="" fill="#484649" transform="translate(0,0)"/>
<path d="" fill="#474649" transform="translate(0,0)"/>
<path d="" fill="#464649" transform="translate(0,0)"/>
<path d="" fill="#474649" transform="translate(0,0)"/>
<path d="" fill="#474649" transform="translate(0,0)"/>
<path d="" fill="#484749" transform="translate(0,0)"/>
<path d="" fill="#474748" transform="translate(0,0)"/>
<path d="" fill="#474649" transform="translate(0,0)"/>
<path d="" fill="#484647" transform="translate(0,0)"/>
<path d="" fill="#464646" transform="translate(0,0)"/>
<path d="" fill="#484646" transform="translate(0,0)"/>
<path d="" fill="#474546" transform="translate(0,0)"/>
<path d="" fill="#474646" transform="translate(0,0)"/>
<path d="" fill="#474646" transform="translate(0,0)"/>
<path d="" fill="#474646" transform="translate(0,0)"/>
<path d="" fill="#484546" transform="translate(0,0)"/>
<path d="" fill="#464748" transform="translate(0,0)"/>
<path d="" fill="#464545" transform="translate(0,0)"/>
<path d="" fill="#464747" transform="translate(0,0)"/>
<path d="" fill="#454546" transform="translate(0,0)"/>
<path d="" fill="#454646" transform="translate(0,0)"/>
<path d="" fill="#464848" transform="translate(0,0)"/>
<path d="" fill="#484848" transform="translate(0,0)"/>
<path d="" fill="#454445" transform="translate(0,0)"/>
<path d="" fill="#444343" transform="translate(0,0)"/>
<path d="" fill="#454445" transform="translate(0,0)"/>
<path d="" fill="#464644" transform="translate(0,0)"/>
<path d="" fill="#454545" transform="translate(0,0)"/>
<path d="" fill="#464545" transform="translate(0,0)"/>
<path d="" fill="#474646" transform="translate(0,0)"/>
<path d="" fill="#484646" transform="translate(0,0)"/>
<path d="" fill="#474646" transform="translate(0,0)"/>
<path d="" fill="#464547" transform="translate(0,0)"/>
<path d="" fill="#484848" transform="translate(0,0)"/>
<path d="" fill="#444444" transform="translate(0,0)"/>
<path d="" fill="#464644" transform="translate(0,0)"/>
<path d="" fill="#474748" transform="translate(0,0)"/>
<path d="" fill="#464648" transform="translate(0,0)"/>
<path d="" fill="#474648" transform="translate(0,0)"/>
<path d="" fill="#474648" transform="translate(0,0)"/>
<path d="" fill="#474647" transform="translate(0,0)"/>
<path d="" fill="#464747" transform="translate(0,0)"/>
<path d="" fill="#464747" transform="translate(0,0)"/>
<path d="" fill="#464747" transform="translate(0,0)"/>
<path d="" fill="#464647" transform="translate(0,0)"/>
<path d="" fill="#464747" transform="translate(0,0)"/>
<path d="" fill="#474646" transform="translate(0,0)"/>
<path d="" fill="#464647" transform="translate(0,0)"/>
<path d="" fill="#474647" transform="translate(0,0)"/>
<path d="" fill="#454647" transform="translate(0,0)"/>
<path d="" fill="#464547" transform="translate(0,0)"/>
<path d="" fill="#464546" transform="translate(0,0)"/>
<path d="" fill="#454546" transform="translate(0,0)"/>
<path d="" fill="#454646" transform="translate(0,0)"/>
<path d="" fill="#454445" transform="translate(0,0)"/>
<path d="" fill="#444646" transform="translate(0,0)"/>
<path d="" fill="#464547" transform="translate(0,0)"/>
<path d="" fill="#464647" transform="translate(0,0)"/>
<path d="" fill="#454647" transform="translate(0,0)"/>
<path d="" fill="#454547" transform="translate(0,0)"/>
<path d="" fill="#464547" transform="translate(0,0)"/>
<path d="" fill="#454547" transform="translate(0,0)"/>
<path d="" fill="#454646" transform="translate(0,0)"/>
<path d="" fill="#444546" transform="translate(0,0)"/>
<path d="" fill="#454547" transform="translate(0,0)"/>
<path d="" fill="#454445" transform="translate(0,0)"/>
<path d="" fill="#444546" transform="translate(0,0)"/>
<path d="" fill="#444546" transform="translate(0,0)"/>
<path d="" fill="#454444" transform="translate(0,0)"/>
<path d="" fill="#444446" transform="translate(0,0)"/>
<path d="" fill="#454546" transform="translate(0,0)"/>
<path d="" fill="#444546" transform="translate(0,0)"/>
<path d="" fill="#434345" transform="translate(0,0)"/>
<path d="" fill="#444546" transform="translate(0,0)"/>
<path d="" fill="#464545" transform="translate(0,0)"/>
<path d="" fill="#454546" transform="translate(0,0)"/>
<path d="" fill="#454447" transform="translate(0,0)"/>
<path d="" fill="#454546" transform="translate(0,0)"/>
<path d="" fill="#464646" transform="translate(0,0)"/>
<path d="" fill="#454646" transform="translate(0,0)"/>
<path d="" fill="#464546" transform="translate(0,0)"/>
<path d="" fill="#454547" transform="translate(0,0)"/>
<path d="" fill="#444646" transform="translate(0,0)"/>
<path d="" fill="#464547" transform="translate(0,0)"/>
<path d="" fill="#464647" transform="translate(0,0)"/>
<path d="" fill="#454546" transform="translate(0,0)"/>
<path d="" fill="#464648" transform="translate(0,0)"/>
<path d="" fill="#454646" transform="translate(0,0)"/>
<path d="" fill="#464648" transform="translate(0,0)"/>
<path d="" fill="#454546" transform="translate(0,0)"/>
<path d="" fill="#454646" transform="translate(0,0)"/>
<path d="" fill="#454547" transform="translate(0,0)"/>
<path d="" fill="#454546" transform="translate(0,0)"/>
<path d="" fill="#464546" transform="translate(0,0)"/>
<path d="" fill="#454547" transform="translate(0,0)"/>
<path d="" fill="#454647" transform="translate(0,0)"/>
<path d="" fill="#464647" transform="translate(0,0)"/>
<path d="" fill="#464647" transform="translate(0,0)"/>
<path d="" fill="#464646" transform="translate(0,0)"/>
<path d="" fill="#464747" transform="translate(0,0)"/>
<path d="" fill="#474647" transform="translate(0,0)"/>
<path d="" fill="#464647" transform="translate(0,0)"/>
<path d="" fill="#474647" transform="translate(0,0)"/>
<path d="" fill="#464646" transform="translate(0,0)"/>
<path d="" fill="#464647" transform="translate(0,0)"/>
<path d="" fill="#474748" transform="translate(0,0)"/>
<path d="" fill="#464748" transform="translate(0,0)"/>
<path d="" fill="#464647" transform="translate(0,0)"/>
<path d="" fill="#474647" transform="translate(0,0)"/>
<path d="" fill="#474748" transform="translate(0,0)"/>
<path d="" fill="#474748" transform="translate(0,0)"/>
<path d="" fill="#474748" transform="translate(0,0)"/>
<path d="" fill="#474748" transform="translate(0,0)"/>
<path d="" fill="#484748" transform="translate(0,0)"/>
<path d="" fill="#484846" transform="translate(0,0)"/>
<path d="" fill="#484745" transform="translate(0,0)"/>
<path d="" fill="#474745" transform="translate(0,0)"/>
<path d="" fill="#464646" transform="translate(0,0)"/>
<path d="" fill="#474646" transform="translate(0,0)"/>
<path d="" fill="#474646" transform="translate(0,0)"/>
<path d="" fill="#464745" transform="translate(0,0)"/>
<path d="" fill="#474646" transform="translate(0,0)"/>
<path d="" fill="#464644" transform="translate(0,0)"/>
<path d="" fill="#474544" transform="translate(0,0)"/>
<path d="" fill="#464645" transform="translate(0,0)"/>
<path d="" fill="#464645" transform="translate(0,0)"/>
<path d="" fill="#464645" transform="translate(0,0)"/>
<path d="" fill="#474645" transform="translate(0,0)"/>
<path d="" fill="#474745" transform="translate(0,0)"/>
<path d="" fill="#474744" transform="translate(0,0)"/>
<path d="" fill="#474645" transform="translate(0,0)"/>
<path d="" fill="#464744" transform="translate(0,0)"/>
<path d="" fill="#464646" transform="translate(0,0)"/>
<path d="" fill="#474746" transform="translate(0,0)"/>
<path d="" fill="#474646" transform="translate(0,0)"/>
<path d="" fill="#474745" transform="translate(0,0)"/>
<path d="" fill="#474645" transform="translate(0,0)"/>
<path d="" fill="#474746" transform="translate(0,0)"/>
<path d="" fill="#474645" transform="translate(0,0)"/>
<path d="" fill="#484646" transform="translate(0,0)"/>
<path d="" fill="#464746" transform="translate(0,0)"/>
<path d="" fill="#474646" transform="translate(0,0)"/>
<path d="" fill="#474746" transform="translate(0,0)"/>
<path d="" fill="#484846" transform="translate(0,0)"/>
<path d="" fill="#494846" transform="translate(0,0)"/>
<path d="" fill="#444547" transform="translate(0,0)"/>
<path d="" fill="#454646" transform="translate(0,0)"/>
<path d="" fill="#484445" transform="translate(0,0)"/>
<path d="" fill="#484445" transform="translate(0,0)"/>
<path d="" fill="#474445" transform="translate(0,0)"/>
<path d="" fill="#484445" transform="translate(0,0)"/>
<path d="" fill="#464444" transform="translate(0,0)"/>
<path d="" fill="#464345" transform="translate(0,0)"/>
<path d="" fill="#474344" transform="translate(0,0)"/>
<path d="" fill="#464444" transform="translate(0,0)"/>
<path d="" fill="#474345" transform="translate(0,0)"/>
<path d="" fill="#484445" transform="translate(0,0)"/>
<path d="" fill="#464345" transform="translate(0,0)"/>
<path d="" fill="#474344" transform="translate(0,0)"/>
<path d="" fill="#454244" transform="translate(0,0)"/>
<path d="" fill="#454243" transform="translate(0,0)"/>
<path d="" fill="#464343" transform="translate(0,0)"/>
<path d="" fill="#464343" transform="translate(0,0)"/>
<path d="" fill="#474344" transform="translate(0,0)"/>
<path d="" fill="#474443" transform="translate(0,0)"/>
<path d="" fill="#474344" transform="translate(0,0)"/>
<path d="" fill="#464345" transform="translate(0,0)"/>
<path d="" fill="#464243" transform="translate(0,0)"/>
<path d="" fill="#474344" transform="translate(0,0)"/>
<path d="" fill="#464345" transform="translate(0,0)"/>
<path d="" fill="#474345" transform="translate(0,0)"/>
<path d="" fill="#464345" transform="translate(0,0)"/>
<path d="" fill="#474445" transform="translate(0,0)"/>
<path d="" fill="#474446" transform="translate(0,0)"/>
<path d="" fill="#464445" transform="translate(0,0)"/>
<path d="" fill="#464445" transform="translate(0,0)"/>
<path d="" fill="#474445" transform="translate(0,0)"/>
<path d="" fill="#474345" transform="translate(0,0)"/>
<path d="" fill="#474345" transform="translate(0,0)"/>
<path d="" fill="#474444" transform="translate(0,0)"/>
<path d="" fill="#484546" transform="translate(0,0)"/>
<path d="" fill="#484545" transform="translate(0,0)"/>
<path d="" fill="#484545" transform="translate(0,0)"/>
<path d="" fill="#484445" transform="translate(0,0)"/>
<path d="" fill="#484544" transform="translate(0,0)"/>
<path d="" fill="#484545" transform="translate(0,0)"/>
<path d="" fill="#494547" transform="translate(0,0)"/>
<path d="" fill="#494546" transform="translate(0,0)"/>
<path d="" fill="#484447" transform="translate(0,0)"/>
<path d="" fill="#484445" transform="translate(0,0)"/>
<path d="" fill="#464646" transform="translate(0,0)"/>
<path d="" fill="#444445" transform="translate(0,0)"/>
<path d="" fill="#444544" transform="translate(0,0)"/>
<path d="" fill="#454647" transform="translate(0,0)"/>
<path d="" fill="#454548" transform="translate(0,0)"/>
<path d="" fill="#484645" transform="translate(0,0)"/>
<path d="" fill="#434442" transform="translate(0,0)"/>
<path d="" fill="#444343" transform="translate(0,0)"/>
<path d="" fill="#464545" transform="translate(0,0)"/>
<path d="" fill="#444344" transform="translate(0,0)"/>
<path d="" fill="#434545" transform="translate(0,0)"/>
<path d="" fill="#434344" transform="translate(0,0)"/>
<path d="" fill="#454547" transform="translate(0,0)"/>
<path d="" fill="#484647" transform="translate(0,0)"/>
<path d="" fill="#494749" transform="translate(0,0)"/>
<path d="" fill="#4B474B" transform="translate(0,0)"/>
<path d="" fill="#4A4649" transform="translate(0,0)"/>
<path d="" fill="#474746" transform="translate(0,0)"/>
<path d="" fill="#484949" transform="translate(0,0)"/>
<path d="" fill="#474848" transform="translate(0,0)"/>
<path d="" fill="#484849" transform="translate(0,0)"/>
<path d="" fill="#484A4B" transform="translate(0,0)"/>
<path d="" fill="#4A4A4B" transform="translate(0,0)"/>
<path d="" fill="#4B4B4B" transform="translate(0,0)"/>
<path d="" fill="#494A4D" transform="translate(0,0)"/>
<path d="" fill="#464848" transform="translate(0,0)"/>
<path d="" fill="#474749" transform="translate(0,0)"/>
<path d="" fill="#4B484A" transform="translate(0,0)"/>
<path d="" fill="#4A4A4B" transform="translate(0,0)"/>
<path d="" fill="#4B4A4B" transform="translate(0,0)"/>
<path d="" fill="#4B494B" transform="translate(0,0)"/>
<path d="" fill="#4B494B" transform="translate(0,0)"/>
<path d="" fill="#4C4B4C" transform="translate(0,0)"/>
<path d="" fill="#4D4B4C" transform="translate(0,0)"/>
<path d="" fill="#4E4C4E" transform="translate(0,0)"/>
<path d="" fill="#4D4D4F" transform="translate(0,0)"/>
<path d="" fill="#4F4D51" transform="translate(0,0)"/>
<path d="" fill="#504E51" transform="translate(0,0)"/>
<path d="" fill="#56525B" transform="translate(0,0)"/>
<path d="" fill="#57525E" transform="translate(0,0)"/>
<path d="" fill="#595161" transform="translate(0,0)"/>
<path d="" fill="#55515C" transform="translate(0,0)"/>
<path d="" fill="#544F5C" transform="translate(0,0)"/>
<path d="" fill="#55505A" transform="translate(0,0)"/>
<path d="" fill="#54505C" transform="translate(0,0)"/>
<path d="" fill="#55505C" transform="translate(0,0)"/>
<path d="" fill="#554F5D" transform="translate(0,0)"/>
<path d="" fill="#55505B" transform="translate(0,0)"/>
<path d="" fill="#534F5A" transform="translate(0,0)"/>
<path d="" fill="#524E56" transform="translate(0,0)"/>
<path d="" fill="#514E57" transform="translate(0,0)"/>
<path d="" fill="#504D54" transform="translate(0,0)"/>
<path d="" fill="#4F4D51" transform="translate(0,0)"/>
<path d="" fill="#4C4B4E" transform="translate(0,0)"/>
<path d="" fill="#4B4A4B" transform="translate(0,0)"/>
<path d="" fill="#4A4949" transform="translate(0,0)"/>
<path d="" fill="#49484A" transform="translate(0,0)"/>
<path d="" fill="#484848" transform="translate(0,0)"/>
<path d="" fill="#494948" transform="translate(0,0)"/>
<path d="" fill="#484849" transform="translate(0,0)"/>
<path d="" fill="#484948" transform="translate(0,0)"/>
<path d="" fill="#484848" transform="translate(0,0)"/>
<path d="" fill="#484748" transform="translate(0,0)"/>
<path d="" fill="#484848" transform="translate(0,0)"/>
<path d="" fill="#484948" transform="translate(0,0)"/>
<path d="" fill="#4B4A4C" transform="translate(0,0)"/>
<path d="" fill="#4C4D4F" transform="translate(0,0)"/>
<path d="" fill="#514F52" transform="translate(0,0)"/>
<path d="" fill="#5A5562" transform="translate(0,0)"/>
<path d="" fill="#5C5568" transform="translate(0,0)"/>
<path d="" fill="#5F576C" transform="translate(0,0)"/>
<path d="" fill="#595263" transform="translate(0,0)"/>
<path d="" fill="#575160" transform="translate(0,0)"/>
<path d="" fill="#585363" transform="translate(0,0)"/>
<path d="" fill="#56515D" transform="translate(0,0)"/>
<path d="" fill="#534F5A" transform="translate(0,0)"/>
<path d="" fill="#4A494B" transform="translate(0,0)"/>
<path d="" fill="#47494A" transform="translate(0,0)"/>
<path d="" fill="#514E53" transform="translate(0,0)"/>
<path d="" fill="#525054" transform="translate(0,0)"/>
<path d="" fill="#524F55" transform="translate(0,0)"/>
<path d="" fill="#5F576B" transform="translate(0,0)"/>
<path d="" fill="#5F586C" transform="translate(0,0)"/>
<path d="" fill="#5D5669" transform="translate(0,0)"/>
<path d="" fill="#5A5564" transform="translate(0,0)"/>
<path d="" fill="#585261" transform="translate(0,0)"/>
<path d="" fill="#595463" transform="translate(0,0)"/>
<path d="" fill="#575360" transform="translate(0,0)"/>
<path d="" fill="#535059" transform="translate(0,0)"/>
<path d="" fill="#514F54" transform="translate(0,0)"/>
<path d="" fill="#4C4B4C" transform="translate(0,0)"/>
<path d="" fill="#4A4B4B" transform="translate(0,0)"/>
<path d="" fill="#494B4A" transform="translate(0,0)"/>
<path d="" fill="#494A47" transform="translate(0,0)"/>
<path d="" fill="#484947" transform="translate(0,0)"/>
<path d="" fill="#4C4A4E" transform="translate(0,0)"/>
<path d="" fill="#4E4A4F" transform="translate(0,0)"/>
<path d="" fill="#514B52" transform="translate(0,0)"/>
<path d="" fill="#56505B" transform="translate(0,0)"/>
<path d="" fill="#58515D" transform="translate(0,0)"/>
<path d="" fill="#5C5364" transform="translate(0,0)"/>
<path d="" fill="#61566D" transform="translate(0,0)"/>
<path d="" fill="#615670" transform="translate(0,0)"/>
<path d="" fill="#5C5267" transform="translate(0,0)"/>
<path d="" fill="#595060" transform="translate(0,0)"/>
<path d="" fill="#4A484A" transform="translate(0,0)"/>
<path d="" fill="#4D4A4D" transform="translate(0,0)"/>
<path d="" fill="#514E54" transform="translate(0,0)"/>
<path d="" fill="#4D4B50" transform="translate(0,0)"/>
<path d="" fill="#4F4F54" transform="translate(0,0)"/>
<path d="" fill="#504E53" transform="translate(0,0)"/>
<path d="" fill="#534F59" transform="translate(0,0)"/>
<path d="" fill="#525058" transform="translate(0,0)"/>
<path d="" fill="#535159" transform="translate(0,0)"/>
<path d="" fill="#56515B" transform="translate(0,0)"/>
<path d="" fill="#55505C" transform="translate(0,0)"/>
<path d="" fill="#56515D" transform="translate(0,0)"/>
<path d="" fill="#57525F" transform="translate(0,0)"/>
<path d="" fill="#5B5565" transform="translate(0,0)"/>
<path d="" fill="#645876" transform="translate(0,0)"/>
<path d="" fill="#5E556B" transform="translate(0,0)"/>
<path d="" fill="#5E566E" transform="translate(0,0)"/>
<path d="" fill="#5F5670" transform="translate(0,0)"/>
<path d="" fill="#5A5465" transform="translate(0,0)"/>
<path d="" fill="#504D53" transform="translate(0,0)"/>
<path d="" fill="#4E4C50" transform="translate(0,0)"/>
<path d="" fill="#4D4C4F" transform="translate(0,0)"/>
<path d="" fill="#4C4C4E" transform="translate(0,0)"/>
<path d="" fill="#4C4A4C" transform="translate(0,0)"/>
<path d="" fill="#4B4A4A" transform="translate(0,0)"/>
<path d="" fill="#49494B" transform="translate(0,0)"/>
<path d="" fill="#4E4C4C" transform="translate(0,0)"/>
<path d="" fill="#4F4B4E" transform="translate(0,0)"/>
<path d="" fill="#524F52" transform="translate(0,0)"/>
<path d="" fill="#525054" transform="translate(0,0)"/>
<path d="" fill="#544F57" transform="translate(0,0)"/>
<path d="" fill="#58535F" transform="translate(0,0)"/>
<path d="" fill="#60576A" transform="translate(0,0)"/>
<path d="" fill="#61586F" transform="translate(0,0)"/>
<path d="" fill="#625770" transform="translate(0,0)"/>
<path d="" fill="#4F4C4D" transform="translate(0,0)"/>
<path d="" fill="#514E52" transform="translate(0,0)"/>
<path d="" fill="#5A5561" transform="translate(0,0)"/>
<path d="" fill="#67597C" transform="translate(0,0)"/>
<path d="" fill="#665A78" transform="translate(0,0)"/>
<path d="" fill="#5A535F" transform="translate(0,0)"/>
<path d="" fill="#4D4B4D" transform="translate(0,0)"/>
<path d="" fill="#4C494C" transform="translate(0,0)"/>
<path d="" fill="#4B4D4D" transform="translate(0,0)"/>
<path d="" fill="#8A67D3" transform="translate(0,0)"/>
<path d="" fill="#8A6AD5" transform="translate(0,0)"/>
<path d="" fill="#5C5765" transform="translate(0,0)"/>
<path d="" fill="#615B6D" transform="translate(0,0)"/>
<path d="" fill="#635B72" transform="translate(0,0)"/>
<path d="" fill="#655C75" transform="translate(0,0)"/>
<path d="" fill="#58555E" transform="translate(0,0)"/>
<path d="" fill="#4C4C4D" transform="translate(0,0)"/>
<path d="" fill="#625A6C" transform="translate(0,0)"/>
<path d="" fill="#8A6AD6" transform="translate(0,0)"/>
<path d="" fill="#8B6BDA" transform="translate(0,0)"/>
<path d="" fill="#8B6BDA" transform="translate(0,0)"/>
<path d="" fill="#8A67D6" transform="translate(0,0)"/>
<path d="" fill="#8A69D5" transform="translate(0,0)"/>
<path d="" fill="#8C6CD6" transform="translate(0,0)"/>
<path d="" fill="#8B6CD9" transform="translate(0,0)"/>
<path d="" fill="#8C6ADE" transform="translate(0,0)"/>
<path d="" fill="#8A68D9" transform="translate(0,0)"/>
<path d="" fill="#8A6AD8" transform="translate(0,0)"/>
<path d="" fill="#8A69D8" transform="translate(0,0)"/>
<path d="" fill="#8A68D8" transform="translate(0,0)"/>
<path d="" fill="#8B6CDB" transform="translate(0,0)"/>
<path d="" fill="#8B68DA" transform="translate(0,0)"/>
<path d="" fill="#8C6BDD" transform="translate(0,0)"/>
<path d="" fill="#8B6BDC" transform="translate(0,0)"/>
<path d="" fill="#8B6CD6" transform="translate(0,0)"/>
<path d="" fill="#8E69DC" transform="translate(0,0)"/>
<path d="" fill="#8C6ADE" transform="translate(0,0)"/>
<path d="" fill="#8C68E1" transform="translate(0,0)"/>
<path d="" fill="#8D6DDD" transform="translate(0,0)"/>
<path d="" fill="#8F6FE0" transform="translate(0,0)"/>
<path d="" fill="#8C6BDE" transform="translate(0,0)"/>
<path d="" fill="#896BDE" transform="translate(0,0)"/>
<path d="" fill="#8668D9" transform="translate(0,0)"/>
<path d="" fill="#8A6BD7" transform="translate(0,0)"/>
<path d="" fill="#8C6BE1" transform="translate(0,0)"/>
<path d="" fill="#8A6BD7" transform="translate(0,0)"/>
<path d="" fill="#8F6BE3" transform="translate(0,0)"/>
<path d="" fill="#8D6AE3" transform="translate(0,0)"/>
<path d="" fill="#8F70E4" transform="translate(0,0)"/>
<path d="" fill="#8B6CDE" transform="translate(0,0)"/>
<path d="" fill="#8F6CE3" transform="translate(0,0)"/>
<path d="" fill="#8F6FE3" transform="translate(0,0)"/>
<path d="" fill="#916DE3" transform="translate(0,0)"/>
<path d="" fill="#59575E" transform="translate(0,0)"/>
<path d="" fill="#8F6EE4" transform="translate(0,0)"/>
<path d="" fill="#8B6AD5" transform="translate(0,0)"/>
<path d="" fill="#8E6EE2" transform="translate(0,0)"/>
<path d="" fill="#8D6DE8" transform="translate(0,0)"/>
<path d="" fill="#9070E7" transform="translate(0,0)"/>
<path d="" fill="#8E6FE2" transform="translate(0,0)"/>
<path d="" fill="#8B6BD5" transform="translate(0,0)"/>
<path d="" fill="#8B6CE3" transform="translate(0,0)"/>
<path d="" fill="#8B6CCE" transform="translate(0,0)"/>
<path d="" fill="#8B6ED2" transform="translate(0,0)"/>
<path d="" fill="#906EE6" transform="translate(0,0)"/>
<path d="" fill="#756599" transform="translate(0,0)"/>
<path d="" fill="#77669E" transform="translate(0,0)"/>
<path d="" fill="#7A65A3" transform="translate(0,0)"/>
<path d="" fill="#8F6DE5" transform="translate(0,0)"/>
<path d="" fill="#8F6CE2" transform="translate(0,0)"/>
<path d="" fill="#8B6CDB" transform="translate(0,0)"/>
<path d="" fill="#8D6BE4" transform="translate(0,0)"/>
<path d="" fill="#8F6EDD" transform="translate(0,0)"/>
<path d="" fill="#625A6D" transform="translate(0,0)"/>
<path d="" fill="#62586E" transform="translate(0,0)"/>
<path d="" fill="#6B5E82" transform="translate(0,0)"/>
<path d="" fill="#786399" transform="translate(0,0)"/>
<path d="" fill="#8F6EDD" transform="translate(0,0)"/>
<path d="" fill="#8E6DDD" transform="translate(0,0)"/>
<path d="" fill="#625A6D" transform="translate(0,0)"/>
<path d="" fill="#565259" transform="translate(0,0)"/>
<path d="" fill="#525253" transform="translate(0,0)"/>
<path d="" fill="#535153" transform="translate(0,0)"/>
<path d="" fill="#8F6CDF" transform="translate(0,0)"/>
<path d="" fill="#8E6DE5" transform="translate(0,0)"/>
<path d="" fill="#8E6CE6" transform="translate(0,0)"/>
<path d="" fill="#8F6EE1" transform="translate(0,0)"/>
<path d="" fill="#57535E" transform="translate(0,0)"/>
<path d="" fill="#675B77" transform="translate(0,0)"/>
<path d="" fill="#8F6EE5" transform="translate(0,0)"/>
<path d="" fill="#8E6CE5" transform="translate(0,0)"/>
<path d="" fill="#8C6BE1" transform="translate(0,0)"/>
<path d="" fill="#8C6DE0" transform="translate(0,0)"/>
<path d="" fill="#8E6CDE" transform="translate(0,0)"/>
<path d="" fill="#4E5054" transform="translate(0,0)"/>
<path d="" fill="#525054" transform="translate(0,0)"/>
<path d="" fill="#525055" transform="translate(0,0)"/>
<path d="" fill="#56525B" transform="translate(0,0)"/>
<path d="" fill="#57535C" transform="translate(0,0)"/>
<path d="" fill="#59535E" transform="translate(0,0)"/>
<path d="" fill="#8A6CC7" transform="translate(0,0)"/>
<path d="" fill="#665C79" transform="translate(0,0)"/>
<path d="" fill="#545259" transform="translate(0,0)"/>
<path d="" fill="#504F51" transform="translate(0,0)"/>
<path d="" fill="#4F4E50" transform="translate(0,0)"/>
<path d="" fill="#504D4F" transform="translate(0,0)"/>
<path d="" fill="#4E4D4D" transform="translate(0,0)"/>
<path d="" fill="#8D6BD8" transform="translate(0,0)"/>
<path d="" fill="#4B4E4F" transform="translate(0,0)"/>
<path d="" fill="#4D4D50" transform="translate(0,0)"/>
<path d="" fill="#4D4D51" transform="translate(0,0)"/>
<path d="" fill="#4E4F52" transform="translate(0,0)"/>
<path d="" fill="#5C5769" transform="translate(0,0)"/>
<path d="" fill="#5F586F" transform="translate(0,0)"/>
<path d="" fill="#77649D" transform="translate(0,0)"/>
<path d="" fill="#896AD4" transform="translate(0,0)"/>
<path d="" fill="#8F6FD5" transform="translate(0,0)"/>
<path d="" fill="#7D67A6" transform="translate(0,0)"/>
<path d="" fill="#605871" transform="translate(0,0)"/>
<path d="" fill="#585564" transform="translate(0,0)"/>
<path d="" fill="#525158" transform="translate(0,0)"/>
<path d="" fill="#515157" transform="translate(0,0)"/>
<path d="" fill="#4F4F53" transform="translate(0,0)"/>
<path d="" fill="#4F4F52" transform="translate(0,0)"/>
<path d="" fill="#4E4F52" transform="translate(0,0)"/>
<path d="" fill="#4D4E51" transform="translate(0,0)"/>
<path d="" fill="#4C4D4F" transform="translate(0,0)"/>
<path d="" fill="#4D4C4F" transform="translate(0,0)"/>
<path d="" fill="#4C4C4D" transform="translate(0,0)"/>
<path d="" fill="#4C4D4D" transform="translate(0,0)"/>
<path d="" fill="#4B4D4E" transform="translate(0,0)"/>
<path d="" fill="#4C4D4D" transform="translate(0,0)"/>
<path d="" fill="#4C4D4C" transform="translate(0,0)"/>
<path d="" fill="#4A4C4C" transform="translate(0,0)"/>
<path d="" fill="#8869D3" transform="translate(0,0)"/>
<path d="" fill="#4C4C4C" transform="translate(0,0)"/>
<path d="" fill="#8B69D9" transform="translate(0,0)"/>
<path d="" fill="#8B6AD4" transform="translate(0,0)"/>
<path d="" fill="#515052" transform="translate(0,0)"/>
<path d="" fill="#4D4D4C" transform="translate(0,0)"/>
<path d="" fill="#8E6BD7" transform="translate(0,0)"/>
<path d="" fill="#4B4B4E" transform="translate(0,0)"/>
<path d="" fill="#4C4D4E" transform="translate(0,0)"/>
<path d="" fill="#8D6DD8" transform="translate(0,0)"/>
<path d="" fill="#4A4B4C" transform="translate(0,0)"/>
<path d="" fill="#4E4D50" transform="translate(0,0)"/>
<path d="" fill="#8B6BD6" transform="translate(0,0)"/>
<path d="" fill="#4D4A4B" transform="translate(0,0)"/>
<path d="" fill="#4E4D50" transform="translate(0,0)"/>
<path d="" fill="#4E4C4F" transform="translate(0,0)"/>
<path d="" fill="#4B4B4A" transform="translate(0,0)"/>
<path d="" fill="#4C4B4A" transform="translate(0,0)"/>
<path d="" fill="#4B4A4C" transform="translate(0,0)"/>
<path d="" fill="#4B4C4D" transform="translate(0,0)"/>
<path d="" fill="#8B6AD4" transform="translate(0,0)"/>
<path d="" fill="#8B6AD2" transform="translate(0,0)"/>
<path d="" fill="#4B484B" transform="translate(0,0)"/>
<path d="" fill="#4E4C51" transform="translate(0,0)"/>
<path d="" fill="#504D52" transform="translate(0,0)"/>
<path d="" fill="#8B6AD3" transform="translate(0,0)"/>
<path d="" fill="#4A4A4C" transform="translate(0,0)"/>
<path d="" fill="#49494A" transform="translate(0,0)"/>
<path d="" fill="#8B6BD6" transform="translate(0,0)"/>
<path d="" fill="#4A4B4E" transform="translate(0,0)"/>
<path d="" fill="#4B4A4B" transform="translate(0,0)"/>
<path d="" fill="#4C4B4B" transform="translate(0,0)"/>
<path d="" fill="#4C4A4D" transform="translate(0,0)"/>
<path d="" fill="#4A4A4A" transform="translate(0,0)"/>
<path d="" fill="#49494B" transform="translate(0,0)"/>
<path d="" fill="#4B494B" transform="translate(0,0)"/>
<path d="" fill="#4C4A4C" transform="translate(0,0)"/>
<path d="" fill="#4D4C50" transform="translate(0,0)"/>
<path d="" fill="#6B5D82" transform="translate(0,0)"/>
<path d="" fill="#6C5B80" transform="translate(0,0)"/>
<path d="" fill="#675B7A" transform="translate(0,0)"/>
<path d="" fill="#5A5265" transform="translate(0,0)"/>
<path d="" fill="#514C57" transform="translate(0,0)"/>
<path d="" fill="#4C4A4F" transform="translate(0,0)"/>
<path d="" fill="#4B494C" transform="translate(0,0)"/>
<path d="" fill="#4A484A" transform="translate(0,0)"/>
<path d="" fill="#494849" transform="translate(0,0)"/>
<path d="" fill="#49494A" transform="translate(0,0)"/>
<path d="" fill="#49484A" transform="translate(0,0)"/>
<path d="" fill="#655976" transform="translate(0,0)"/>
<path d="" fill="#4B4B4D" transform="translate(0,0)"/>
<path d="" fill="#4D4A4F" transform="translate(0,0)"/>
<path d="" fill="#4A494A" transform="translate(0,0)"/>
<path d="" fill="#4A4A49" transform="translate(0,0)"/>
<path d="" fill="#494A4A" transform="translate(0,0)"/>
<path d="" fill="#4A4A49" transform="translate(0,0)"/>
<path d="" fill="#4B4A49" transform="translate(0,0)"/>
<path d="" fill="#4A4A49" transform="translate(0,0)"/>
<path d="" fill="#4A4B49" transform="translate(0,0)"/>
<path d="" fill="#4B4A4A" transform="translate(0,0)"/>
<path d="" fill="#4B4B49" transform="translate(0,0)"/>
<path d="" fill="#4A4A48" transform="translate(0,0)"/>
<path d="" fill="#4B4A4A" transform="translate(0,0)"/>
<path d="" fill="#4B4A4A" transform="translate(0,0)"/>
<path d="" fill="#4C4B4A" transform="translate(0,0)"/>
<path d="" fill="#4A4B49" transform="translate(0,0)"/>
<path d="" fill="#4B4A4A" transform="translate(0,0)"/>
<path d="" fill="#4C4A4B" transform="translate(0,0)"/>
<path d="" fill="#4C4A4B" transform="translate(0,0)"/>
<path d="" fill="#4B4B4C" transform="translate(0,0)"/>
<path d="" fill="#4D4C4C" transform="translate(0,0)"/>
<path d="" fill="#4E4B4D" transform="translate(0,0)"/>
<path d="" fill="#4D4C4F" transform="translate(0,0)"/>
<path d="" fill="#4D4C4E" transform="translate(0,0)"/>
<path d="" fill="#4E4C4F" transform="translate(0,0)"/>
<path d="" fill="#4E4D50" transform="translate(0,0)"/>
<path d="" fill="#4E4F52" transform="translate(0,0)"/>
<path d="" fill="#504D53" transform="translate(0,0)"/>
<path d="" fill="#514D54" transform="translate(0,0)"/>
<path d="" fill="#514F56" transform="translate(0,0)"/>
<path d="" fill="#535058" transform="translate(0,0)"/>
<path d="" fill="#545159" transform="translate(0,0)"/>
<path d="" fill="#55505A" transform="translate(0,0)"/>
<path d="" fill="#58515E" transform="translate(0,0)"/>
<path d="" fill="#57515F" transform="translate(0,0)"/>
<path d="" fill="#595263" transform="translate(0,0)"/>
<path d="" fill="#5B5464" transform="translate(0,0)"/>
<path d="" fill="#5C5568" transform="translate(0,0)"/>
<path d="" fill="#5E5569" transform="translate(0,0)"/>
<path d="" fill="#5E556C" transform="translate(0,0)"/>
<path d="" fill="#615770" transform="translate(0,0)"/>
<path d="" fill="#625973" transform="translate(0,0)"/>
<path d="" fill="#655975" transform="translate(0,0)"/>
<path d="" fill="#665A7A" transform="translate(0,0)"/>
<path d="" fill="#675A7C" transform="translate(0,0)"/>
<path d="" fill="#695B7E" transform="translate(0,0)"/>
<path d="" fill="#6C5C83" transform="translate(0,0)"/>
<path d="" fill="#6B5D84" transform="translate(0,0)"/>
<path d="" fill="#6C5F86" transform="translate(0,0)"/>
<path d="" fill="#6D5E88" transform="translate(0,0)"/>
<path d="" fill="#6E5F89" transform="translate(0,0)"/>
<path d="" fill="#705F8B" transform="translate(0,0)"/>
<path d="" fill="#6F5F8D" transform="translate(0,0)"/>
<path d="" fill="#715F8E" transform="translate(0,0)"/>
<path d="" fill="#725F8D" transform="translate(0,0)"/>
<path d="" fill="#715F8D" transform="translate(0,0)"/>
<path d="" fill="#705F8B" transform="translate(0,0)"/>
<path d="" fill="#6E5E8A" transform="translate(0,0)"/>
<path d="" fill="#6E5E89" transform="translate(0,0)"/>
<path d="" fill="#6D5E86" transform="translate(0,0)"/>
<path d="" fill="#6C5D86" transform="translate(0,0)"/>
<path d="" fill="#6C5C84" transform="translate(0,0)"/>
<path d="" fill="#6C5D81" transform="translate(0,0)"/>
<path d="" fill="#695B7F" transform="translate(0,0)"/>
<path d="" fill="#6A5B7C" transform="translate(0,0)"/>
<path d="" fill="#685B7D" transform="translate(0,0)"/>
<path d="" fill="#675C7A" transform="translate(0,0)"/>
<path d="" fill="#665A78" transform="translate(0,0)"/>
<path d="" fill="#655975" transform="translate(0,0)"/>
<path d="" fill="#635972" transform="translate(0,0)"/>
<path d="" fill="#625771" transform="translate(0,0)"/>
<path d="" fill="#61586E" transform="translate(0,0)"/>
<path d="" fill="#60566D" transform="translate(0,0)"/>
<path d="" fill="#60576B" transform="translate(0,0)"/>
<path d="" fill="#5E5468" transform="translate(0,0)"/>
<path d="" fill="#5D5566" transform="translate(0,0)"/>
<path d="" fill="#5B5363" transform="translate(0,0)"/>
<path d="" fill="#595463" transform="translate(0,0)"/>
<path d="" fill="#595362" transform="translate(0,0)"/>
<path d="" fill="#57535E" transform="translate(0,0)"/>
<path d="" fill="#57525F" transform="translate(0,0)"/>
<path d="" fill="#55505E" transform="translate(0,0)"/>
<path d="" fill="#53505A" transform="translate(0,0)"/>
<path d="" fill="#55515B" transform="translate(0,0)"/>
<path d="" fill="#535059" transform="translate(0,0)"/>
<path d="" fill="#524D57" transform="translate(0,0)"/>
<path d="" fill="#514E54" transform="translate(0,0)"/>
<path d="" fill="#504D54" transform="translate(0,0)"/>
<path d="" fill="#4F4D53" transform="translate(0,0)"/>
<path d="" fill="#4F4D53" transform="translate(0,0)"/>
<path d="" fill="#4F4C50" transform="translate(0,0)"/>
<path d="" fill="#4E4C4F" transform="translate(0,0)"/>
<path d="" fill="#4D4B4F" transform="translate(0,0)"/>
<path d="" fill="#4D4B4E" transform="translate(0,0)"/>
<path d="" fill="#4C4A4D" transform="translate(0,0)"/>
<path d="" fill="#4C4C4D" transform="translate(0,0)"/>
<path d="" fill="#4B4B4C" transform="translate(0,0)"/>
<path d="" fill="#4A4A4B" transform="translate(0,0)"/>
<path d="" fill="#4B4A4C" transform="translate(0,0)"/>
<path d="" fill="#4A4A4B" transform="translate(0,0)"/>
<path d="" fill="#4B4A4A" transform="translate(0,0)"/>
<path d="" fill="#4B494A" transform="translate(0,0)"/>
<path d="" fill="#494A4A" transform="translate(0,0)"/>
<path d="" fill="#4A4949" transform="translate(0,0)"/>
<path d="" fill="#494A49" transform="translate(0,0)"/>
<path d="" fill="#494A49" transform="translate(0,0)"/>
<path d="" fill="#4A4848" transform="translate(0,0)"/>
<path d="" fill="#4A4A49" transform="translate(0,0)"/>
<path d="" fill="#484848" transform="translate(0,0)"/>
<path d="" fill="#484949" transform="translate(0,0)"/>
<path d="" fill="#4A4948" transform="translate(0,0)"/>
<path d="" fill="#494848" transform="translate(0,0)"/>
<path d="" fill="#494948" transform="translate(0,0)"/>
<path d="" fill="#4A4848" transform="translate(0,0)"/>
<path d="" fill="#494A49" transform="translate(0,0)"/>
<path d="" fill="#494948" transform="translate(0,0)"/>
<path d="" fill="#494948" transform="translate(0,0)"/>
<path d="" fill="#494948" transform="translate(0,0)"/>
<path d="" fill="#4A4A48" transform="translate(0,0)"/>
<path d="" fill="#4A4A48" transform="translate(0,0)"/>
<path d="" fill="#4A4949" transform="translate(0,0)"/>
<path d="" fill="#4A4A49" transform="translate(0,0)"/>
<path d="" fill="#494948" transform="translate(0,0)"/>
<path d="" fill="#4A4948" transform="translate(0,0)"/>
<path d="" fill="#494A49" transform="translate(0,0)"/>
<path d="" fill="#494A48" transform="translate(0,0)"/>
<path d="" fill="#4B4949" transform="translate(0,0)"/>
<path d="" fill="#615672" transform="translate(0,0)"/>
<path d="" fill="#49484A" transform="translate(0,0)"/>
<path d="" fill="#4A4A4D" transform="translate(0,0)"/>
<path d="" fill="#49494B" transform="translate(0,0)"/>
<path d="" fill="#4A494A" transform="translate(0,0)"/>
<path d="" fill="#4C4A4B" transform="translate(0,0)"/>
<path d="" fill="#4C4A4E" transform="translate(0,0)"/>
<path d="" fill="#4A4A4D" transform="translate(0,0)"/>
<path d="" fill="#494849" transform="translate(0,0)"/>
<path d="" fill="#494748" transform="translate(0,0)"/>
<path d="" fill="#484849" transform="translate(0,0)"/>
<path d="" fill="#484949" transform="translate(0,0)"/>
<path d="" fill="#484949" transform="translate(0,0)"/>
<path d="" fill="#494949" transform="translate(0,0)"/>
<path d="" fill="#4A4849" transform="translate(0,0)"/>
<path d="" fill="#484949" transform="translate(0,0)"/>
<path d="" fill="#494948" transform="translate(0,0)"/>
<path d="" fill="#484948" transform="translate(0,0)"/>
<path d="" fill="#494949" transform="translate(0,0)"/>
<path d="" fill="#494849" transform="translate(0,0)"/>
<path d="" fill="#48484A" transform="translate(0,0)"/>
<path d="" fill="#49484A" transform="translate(0,0)"/>
<path d="" fill="#4B494B" transform="translate(0,0)"/>
<path d="" fill="#4D4C51" transform="translate(0,0)"/>
<path d="" fill="#4F4D52" transform="translate(0,0)"/>
<path d="" fill="#504D54" transform="translate(0,0)"/>
<path d="" fill="#504D55" transform="translate(0,0)"/>
<path d="" fill="#504E57" transform="translate(0,0)"/>
<path d="" fill="#524F59" transform="translate(0,0)"/>
<path d="" fill="#534E5A" transform="translate(0,0)"/>
<path d="" fill="#514E59" transform="translate(0,0)"/>
<path d="" fill="#514D55" transform="translate(0,0)"/>
<path d="" fill="#504D56" transform="translate(0,0)"/>
<path d="" fill="#4F4E54" transform="translate(0,0)"/>
<path d="" fill="#4F4C53" transform="translate(0,0)"/>
<path d="" fill="#4B4B51" transform="translate(0,0)"/>
<path d="" fill="#4C4A4D" transform="translate(0,0)"/>
<path d="" fill="#4B494C" transform="translate(0,0)"/>
<path d="" fill="#494B4C" transform="translate(0,0)"/>
<path d="" fill="#4B4A4C" transform="translate(0,0)"/>
<path d="" fill="#4A494C" transform="translate(0,0)"/>
<path d="" fill="#4A494B" transform="translate(0,0)"/>
<path d="" fill="#49474A" transform="translate(0,0)"/>
<path d="" fill="#48484A" transform="translate(0,0)"/>
<path d="" fill="#49494A" transform="translate(0,0)"/>
<path d="" fill="#484848" transform="translate(0,0)"/>
<path d="" fill="#474849" transform="translate(0,0)"/>
<path d="" fill="#484849" transform="translate(0,0)"/>
<path d="" fill="#484949" transform="translate(0,0)"/>
<path d="" fill="#484747" transform="translate(0,0)"/>
<path d="" fill="#484949" transform="translate(0,0)"/>
<path d="" fill="#474748" transform="translate(0,0)"/>
<path d="" fill="#464747" transform="translate(0,0)"/>
<path d="" fill="#484849" transform="translate(0,0)"/>
<path d="" fill="#484849" transform="translate(0,0)"/>
<path d="" fill="#494849" transform="translate(0,0)"/>
<path d="" fill="#494748" transform="translate(0,0)"/>
<path d="" fill="#494949" transform="translate(0,0)"/>
<path d="" fill="#494849" transform="translate(0,0)"/>
<path d="" fill="#4B4A49" transform="translate(0,0)"/>
<path d="" fill="#494A48" transform="translate(0,0)"/>
<path d="" fill="#4B4A4D" transform="translate(0,0)"/>
<path d="" fill="#484948" transform="translate(0,0)"/>
<path d="" fill="#484849" transform="translate(0,0)"/>
<path d="" fill="#494749" transform="translate(0,0)"/>
<path d="" fill="#474948" transform="translate(0,0)"/>
<path d="" fill="#49474A" transform="translate(0,0)"/>
<path d="" fill="#494749" transform="translate(0,0)"/>
<path d="" fill="#4A484C" transform="translate(0,0)"/>
<path d="" fill="#4C4B50" transform="translate(0,0)"/>
<path d="" fill="#4E4A52" transform="translate(0,0)"/>
<path d="" fill="#4F4B53" transform="translate(0,0)"/>
<path d="" fill="#4D4951" transform="translate(0,0)"/>
<path d="" fill="#49484B" transform="translate(0,0)"/>
<path d="" fill="#494749" transform="translate(0,0)"/>
<path d="" fill="#484848" transform="translate(0,0)"/>
<path d="" fill="#494748" transform="translate(0,0)"/>
<path d="" fill="#474847" transform="translate(0,0)"/>
<path d="" fill="#484749" transform="translate(0,0)"/>
<path d="" fill="#484749" transform="translate(0,0)"/>
<path d="" fill="#484749" transform="translate(0,0)"/>
<path d="" fill="#49474A" transform="translate(0,0)"/>
<path d="" fill="#494849" transform="translate(0,0)"/>
<path d="" fill="#494848" transform="translate(0,0)"/>
<path d="" fill="#494747" transform="translate(0,0)"/>
<path d="" fill="#4C494D" transform="translate(0,0)"/>
<path d="" fill="#484848" transform="translate(0,0)"/>
<path d="" fill="#494648" transform="translate(0,0)"/>
<path d="" fill="#474648" transform="translate(0,0)"/>
<path d="" fill="#484948" transform="translate(0,0)"/>
<path d="" fill="#484849" transform="translate(0,0)"/>
<path d="" fill="#494949" transform="translate(0,0)"/>
<path d="" fill="#484848" transform="translate(0,0)"/>
<path d="" fill="#474849" transform="translate(0,0)"/>
<path d="" fill="#474747" transform="translate(0,0)"/>
<path d="" fill="#4B494D" transform="translate(0,0)"/>
<path d="" fill="#484849" transform="translate(0,0)"/>
<path d="" fill="#484849" transform="translate(0,0)"/>
<path d="" fill="#474747" transform="translate(0,0)"/>
<path d="" fill="#484847" transform="translate(0,0)"/>
<path d="" fill="#474849" transform="translate(0,0)"/>
<path d="" fill="#494948" transform="translate(0,0)"/>
<path d="" fill="#484947" transform="translate(0,0)"/>
<path d="" fill="#494847" transform="translate(0,0)"/>
<path d="" fill="#484747" transform="translate(0,0)"/>
<path d="" fill="#484847" transform="translate(0,0)"/>
<path d="" fill="#494847" transform="translate(0,0)"/>
<path d="" fill="#494847" transform="translate(0,0)"/>
<path d="" fill="#494948" transform="translate(0,0)"/>
<path d="" fill="#494947" transform="translate(0,0)"/>
<path d="" fill="#4B494A" transform="translate(0,0)"/>
<path d="" fill="#4A4A4A" transform="translate(0,0)"/>
<path d="" fill="#494949" transform="translate(0,0)"/>
<path d="" fill="#494949" transform="translate(0,0)"/>
<path d="" fill="#484947" transform="translate(0,0)"/>
<path d="" fill="#484848" transform="translate(0,0)"/>
<path d="" fill="#494847" transform="translate(0,0)"/>
<path d="" fill="#484846" transform="translate(0,0)"/>
<path d="" fill="#484847" transform="translate(0,0)"/>
<path d="" fill="#484847" transform="translate(0,0)"/>
<path d="" fill="#494947" transform="translate(0,0)"/>
<path d="" fill="#49484A" transform="translate(0,0)"/>
<path d="" fill="#494849" transform="translate(0,0)"/>
<path d="" fill="#494748" transform="translate(0,0)"/>
<path d="" fill="#494748" transform="translate(0,0)"/>
<path d="" fill="#484848" transform="translate(0,0)"/>
<path d="" fill="#494749" transform="translate(0,0)"/>
<path d="" fill="#4A494C" transform="translate(0,0)"/>
<path d="" fill="#4A474B" transform="translate(0,0)"/>
<path d="" fill="#49484B" transform="translate(0,0)"/>
<path d="" fill="#494949" transform="translate(0,0)"/>
<path d="" fill="#484749" transform="translate(0,0)"/>
<path d="" fill="#484748" transform="translate(0,0)"/>
<path d="" fill="#484849" transform="translate(0,0)"/>
<path d="" fill="#484848" transform="translate(0,0)"/>
<path d="" fill="#474648" transform="translate(0,0)"/>
<path d="" fill="#484848" transform="translate(0,0)"/>
<path d="" fill="#484848" transform="translate(0,0)"/>
<path d="" fill="#494749" transform="translate(0,0)"/>
<path d="" fill="#494849" transform="translate(0,0)"/>
<path d="" fill="#494849" transform="translate(0,0)"/>
<path d="" fill="#494849" transform="translate(0,0)"/>
<path d="" fill="#484747" transform="translate(0,0)"/>
<path d="" fill="#484748" transform="translate(0,0)"/>
<path d="" fill="#484848" transform="translate(0,0)"/>
<path d="" fill="#484748" transform="translate(0,0)"/>
<path d="" fill="#474849" transform="translate(0,0)"/>
<path d="" fill="#484849" transform="translate(0,0)"/>
<path d="" fill="#474947" transform="translate(0,0)"/>
<path d="" fill="#474949" transform="translate(0,0)"/>
<path d="" fill="#464848" transform="translate(0,0)"/>
<path d="" fill="#474849" transform="translate(0,0)"/>
<path d="" fill="#474849" transform="translate(0,0)"/>
<path d="" fill="#464749" transform="translate(0,0)"/>
<path d="" fill="#46494A" transform="translate(0,0)"/>
<path d="" fill="#474749" transform="translate(0,0)"/>
<path d="" fill="#464849" transform="translate(0,0)"/>
<path d="" fill="#474849" transform="translate(0,0)"/>
<path d="" fill="#484848" transform="translate(0,0)"/>
<path d="" fill="#474849" transform="translate(0,0)"/>
<path d="" fill="#484848" transform="translate(0,0)"/>
<path d="" fill="#47484A" transform="translate(0,0)"/>
<path d="" fill="#474749" transform="translate(0,0)"/>
<path d="" fill="#474948" transform="translate(0,0)"/>
<path d="" fill="#474848" transform="translate(0,0)"/>
<path d="" fill="#484849" transform="translate(0,0)"/>
<path d="" fill="#474849" transform="translate(0,0)"/>
<path d="" fill="#47494A" transform="translate(0,0)"/>
<path d="" fill="#474A49" transform="translate(0,0)"/>
<path d="" fill="#474749" transform="translate(0,0)"/>
<path d="" fill="#484749" transform="translate(0,0)"/>
<path d="" fill="#484749" transform="translate(0,0)"/>
</svg>
