<?xml version="1.0" encoding="UTF-8"?>
<svg version="1.1" xmlns="http://www.w3.org/2000/svg" width="252" height="188">
<path d="M0 0 C83.16 0 166.32 0 252 0 C252 62.04 252 124.08 252 188 C168.84 188 85.68 188 0 188 C0 125.96 0 63.92 0 0 Z " fill="#FEFEFE" transform="translate(0,0)"/>
<path d="M0 0 C4.32687868 2.09756116 7.19961211 5.00154807 10.51953125 8.4296875 C11.15181641 9.05488281 11.78410156 9.68007812 12.43554688 10.32421875 C17.98733631 15.95336431 17.98733631 15.95336431 18.20703125 19.5546875 C15.91736656 24.19102876 12.55101574 27.47537891 8.91552734 31.05737305 C8.28271347 31.68887268 7.6498996 32.32037231 6.99790955 32.9710083 C4.91332903 35.04911795 2.8218673 37.1201604 0.73046875 39.19140625 C-0.72067203 40.63627479 -2.17129764 42.08166092 -3.62142944 43.52754211 C-7.43412554 47.32695187 -11.25235369 51.12074895 -15.07220459 54.91296387 C-21.19472829 60.99231624 -27.31048891 67.07845428 -33.42307663 73.16779518 C-35.56180465 75.29627656 -37.70389933 77.42132679 -39.84634399 79.54606628 C-41.15109443 80.84399165 -42.45573702 82.14202544 -43.76025391 83.44018555 C-44.3597435 84.03293777 -44.95923309 84.62569 -45.57688904 85.23640442 C-48.55193242 88.11602574 -48.55193242 88.11602574 -50.79296875 91.5546875 C-51.45296875 91.5546875 -52.11296875 91.5546875 -52.79296875 91.5546875 C-52.79296875 92.2146875 -52.79296875 92.8746875 -52.79296875 93.5546875 C-53.45296875 93.5546875 -54.11296875 93.5546875 -54.79296875 93.5546875 C-54.79296875 94.2146875 -54.79296875 94.8746875 -54.79296875 95.5546875 C-55.45296875 95.5546875 -56.11296875 95.5546875 -56.79296875 95.5546875 C-56.79296875 96.2146875 -56.79296875 96.8746875 -56.79296875 97.5546875 C-57.45296875 97.5546875 -58.11296875 97.5546875 -58.79296875 97.5546875 C-58.79296875 98.2146875 -58.79296875 98.8746875 -58.79296875 99.5546875 C-59.45296875 99.5546875 -60.11296875 99.5546875 -60.79296875 99.5546875 C-60.79296875 100.2146875 -60.79296875 100.8746875 -60.79296875 101.5546875 C-61.45296875 101.5546875 -62.11296875 101.5546875 -62.79296875 101.5546875 C-62.79296875 102.2146875 -62.79296875 102.8746875 -62.79296875 103.5546875 C-63.45296875 103.5546875 -64.11296875 103.5546875 -64.79296875 103.5546875 C-64.79296875 104.2146875 -64.79296875 104.8746875 -64.79296875 105.5546875 C-65.45296875 105.5546875 -66.11296875 105.5546875 -66.79296875 105.5546875 C-66.79296875 106.2146875 -66.79296875 106.8746875 -66.79296875 107.5546875 C-67.45296875 107.5546875 -68.11296875 107.5546875 -68.79296875 107.5546875 C-68.79296875 108.2146875 -68.79296875 108.8746875 -68.79296875 109.5546875 C-69.45296875 109.5546875 -70.11296875 109.5546875 -70.79296875 109.5546875 C-70.79296875 110.2146875 -70.79296875 110.8746875 -70.79296875 111.5546875 C-71.45296875 111.5546875 -72.11296875 111.5546875 -72.79296875 111.5546875 C-72.79296875 112.2146875 -72.79296875 112.8746875 -72.79296875 113.5546875 C-73.45296875 113.5546875 -74.11296875 113.5546875 -74.79296875 113.5546875 C-74.79296875 114.2146875 -74.79296875 114.8746875 -74.79296875 115.5546875 C-75.45296875 115.5546875 -76.11296875 115.5546875 -76.79296875 115.5546875 C-76.79296875 116.2146875 -76.79296875 116.8746875 -76.79296875 117.5546875 C-77.45296875 117.5546875 -78.11296875 117.5546875 -78.79296875 117.5546875 C-78.79296875 118.2146875 -78.79296875 118.8746875 -78.79296875 119.5546875 C-79.45296875 119.5546875 -80.11296875 119.5546875 -80.79296875 119.5546875 C-80.79296875 120.2146875 -80.79296875 120.8746875 -80.79296875 121.5546875 C-83.3265168 123.27750017 -84.852171 123.55490731 -87.94921875 123.56640625 C-93.30006812 122.15800179 -95.96927383 119.2245982 -99.73046875 115.3046875 C-100.75624023 114.30115234 -100.75624023 114.30115234 -101.80273438 113.27734375 C-106.70139915 108.29548487 -106.70139915 108.29548487 -107.10766602 105.00878906 C-106.79296875 102.5546875 -106.79296875 102.5546875 -104.79296875 99.5546875 C-104.13296875 99.5546875 -103.47296875 99.5546875 -102.79296875 99.5546875 C-102.79296875 98.8946875 -102.79296875 98.2346875 -102.79296875 97.5546875 C-102.13296875 97.5546875 -101.47296875 97.5546875 -100.79296875 97.5546875 C-100.79296875 96.8946875 -100.79296875 96.2346875 -100.79296875 95.5546875 C-100.13296875 95.5546875 -99.47296875 95.5546875 -98.79296875 95.5546875 C-98.79296875 94.8946875 -98.79296875 94.2346875 -98.79296875 93.5546875 C-98.13296875 93.5546875 -97.47296875 93.5546875 -96.79296875 93.5546875 C-96.79296875 92.8946875 -96.79296875 92.2346875 -96.79296875 91.5546875 C-96.13296875 91.5546875 -95.47296875 91.5546875 -94.79296875 91.5546875 C-94.53471251 90.97166933 -94.27645626 90.38865116 -94.01037407 89.78796577 C-92.69237787 87.37015782 -91.25812118 85.76820955 -89.31448364 83.82223511 C-88.59389771 83.09600952 -87.87331177 82.36978394 -87.13088989 81.62155151 C-86.34020111 80.83491119 -85.54951233 80.04827087 -84.73486328 79.23779297 C-83.90218933 78.40161438 -83.06951538 77.56543579 -82.21160889 76.70391846 C-79.93015993 74.41517843 -77.64427103 72.13099432 -75.35600519 69.84907293 C-72.96056623 67.45870215 -70.57001615 65.06345016 -68.17868042 62.66897583 C-64.16226282 58.64892098 -60.14164978 54.63309834 -56.11865234 50.61962891 C-51.46948804 45.98134868 -46.82757255 41.33590745 -42.18935692 36.68668067 C-38.20485894 32.69310298 -34.21647186 28.70344081 -30.2248162 24.71701729 C-27.84166929 22.33698631 -25.45988925 19.95562972 -23.08160782 17.57073593 C-20.42916394 14.91322324 -17.77041075 12.26218941 -15.10986328 9.61279297 C-13.9299028 8.4267598 -13.9299028 8.4267598 -12.72610474 7.21676636 C-11.99987915 6.49618042 -11.27365356 5.77559448 -10.52542114 5.03317261 C-9.583558 4.09244054 -9.583558 4.09244054 -8.62266731 3.13270378 C-5.68937993 0.60290169 -3.89572895 -0.6211372 0 0 Z " fill="#534ED8" transform="translate(140.79296875,2.4453125)"/>
<path d="M0 0 C2.42355683 1.63683734 4.06661216 2.98574497 6.04882812 5.04541016 C6.59619629 5.58197235 7.14356445 6.11853455 7.70751953 6.6713562 C9.50244669 8.44136958 11.26685854 10.23864829 13.03125 12.0390625 C14.27403591 13.28153832 15.5181571 14.52267984 16.7635498 15.76254272 C19.36504994 18.36127782 21.95208287 20.97337486 24.52929688 23.59619141 C27.83237446 26.9560992 31.16572852 30.28389899 34.5100174 33.6027317 C37.08123835 36.16004003 39.63750439 38.73188029 42.1893158 41.30854416 C43.41318431 42.54143862 44.64124887 43.77018247 45.87355042 44.99464798 C47.59299531 46.70826718 49.29176151 48.44004399 50.98632812 50.17822266 C51.49740112 50.68029236 52.00847412 51.18236206 52.53503418 51.699646 C54.95017209 54.2188719 55.96061864 55.70209259 56.42321777 59.20150757 C55.58575682 64.73914867 50.8407808 68.2096728 47 72 C46.14728516 72.86818359 46.14728516 72.86818359 45.27734375 73.75390625 C43.00473142 75.88107139 41.14021995 76.96342088 38.125 77.75 C30.82633641 75.99832074 25.40753696 68.43447686 20.3046875 63.19140625 C19.70447784 62.57641266 19.10426819 61.96141907 18.48587036 61.32778931 C15.97434437 58.75243169 13.46332 56.177218 10.97607422 53.57836914 C9.14098609 51.66466152 7.28741943 49.77060553 5.4296875 47.87890625 C4.87328583 47.28839981 4.31688416 46.69789337 3.74362183 46.0894928 C1.24271516 43.5713572 -0.5465168 42.10312563 -4.03930664 41.30883789 C-7.99146131 42.23145271 -10.09710634 44.32272215 -12.80078125 47.1796875 C-13.32262497 47.70764923 -13.84446869 48.23561096 -14.38212585 48.77957153 C-16.04014931 50.46446992 -17.67587799 52.16933338 -19.3125 53.875 C-20.43160566 55.01563626 -21.55203539 56.15497507 -22.67382812 57.29296875 C-27.91734041 62.22249199 -27.91734041 62.22249199 -32 68 C-32.66 68 -33.32 68 -34 68 C-34 68.66 -34 69.32 -34 70 C-34.66 70 -35.32 70 -36 70 C-36 70.66 -36 71.32 -36 72 C-36.66 72 -37.32 72 -38 72 C-38 72.66 -38 73.32 -38 74 C-40.85672584 76.33732114 -42.60563257 76.98511821 -46.3125 77.125 C-51.83894176 75.43896692 -56.40718811 71.88728759 -59.23046875 66.76953125 C-59.48441406 66.18558594 -59.73835938 65.60164063 -60 65 C-60.66 65 -61.32 65 -62 65 C-64.4294516 61.3558226 -64.16179575 59.28758728 -64 55 C-63.34 55 -62.68 55 -62 55 C-62 54.34 -62 53.68 -62 53 C-61.34 53 -60.68 53 -60 53 C-60 52.34 -60 51.68 -60 51 C-59.34 51 -58.68 51 -58 51 C-58 50.34 -58 49.68 -58 49 C-57.34 49 -56.68 49 -56 49 C-56 48.34 -56 47.68 -56 47 C-55.34 47 -54.68 47 -54 47 C-54 46.34 -54 45.68 -54 45 C-53.34 45 -52.68 45 -52 45 C-52 44.34 -52 43.68 -52 43 C-51.34 43 -50.68 43 -50 43 C-50 42.34 -50 41.68 -50 41 C-49.34 41 -48.68 41 -48 41 C-48 40.34 -48 39.68 -48 39 C-47.34 39 -46.68 39 -46 39 C-46 38.34 -46 37.68 -46 37 C-45.34 37 -44.68 37 -44 37 C-44 36.34 -44 35.68 -44 35 C-43.34 35 -42.68 35 -42 35 C-42 34.34 -42 33.68 -42 33 C-41.34 33 -40.68 33 -40 33 C-40 32.34 -40 31.68 -40 31 C-39.34 31 -38.68 31 -38 31 C-38 30.34 -38 29.68 -38 29 C-37.34 29 -36.68 29 -36 29 C-36 28.34 -36 27.68 -36 27 C-35.34 27 -34.68 27 -34 27 C-34 26.34 -34 25.68 -34 25 C-33.34 25 -32.68 25 -32 25 C-32 24.34 -32 23.68 -32 23 C-31.34 23 -30.68 23 -30 23 C-30 22.34 -30 21.68 -30 21 C-29.34 21 -28.68 21 -28 21 C-28 20.34 -28 19.68 -28 19 C-27.34 19 -26.68 19 -26 19 C-26 18.34 -26 17.68 -26 17 C-25.34 17 -24.68 17 -24 17 C-24 16.34 -24 15.68 -24 15 C-23.34 15 -22.68 15 -22 15 C-22 14.34 -22 13.68 -22 13 C-21.34 13 -20.68 13 -20 13 C-20 12.34 -20 11.68 -20 11 C-19.34 11 -18.68 11 -18 11 C-18 10.34 -18 9.68 -18 9 C-17.34 9 -16.68 9 -16 9 C-16 8.34 -16 7.68 -16 7 C-15.34 7 -14.68 7 -14 7 C-13.7525 6.401875 -13.505 5.80375 -13.25 5.1875 C-10.18622632 -0.17410395 -5.89802233 -1.00097345 0 0 Z " fill="#544FD8" transform="translate(136,87)"/>
<path d="M0 0 C2.58112202 1.66961467 4.69446442 3.71913111 6.875 5.875 C7.46796875 6.43058594 8.0609375 6.98617187 8.671875 7.55859375 C10.16592341 8.98723451 11.58938252 10.48892311 13 12 C13 12.66 13 13.32 13 14 C13.60328125 14.26425781 14.2065625 14.52851562 14.828125 14.80078125 C17.1042287 16.05755074 18.16818433 17.15440162 19.75 19.1875 C21.86883001 21.75848729 24.01731083 23.97632452 26.5625 26.125 C30.54725456 29.51942055 34.28268803 33.13096533 38 36.8125 C38.5885376 37.38822754 39.1770752 37.96395508 39.78344727 38.55712891 C41.22898985 39.9990443 42.61967731 41.49553243 44 43 C44 43.66 44 44.32 44 45 C44.66 45 45.32 45 46 45 C46 45.66 46 46.32 46 47 C46.66 47 47.32 47 48 47 C48 47.66 48 48.32 48 49 C48.66 49 49.32 49 50 49 C50 49.66 50 50.32 50 51 C50.66 51 51.32 51 52 51 C52 51.66 52 52.32 52 53 C52.66 53 53.32 53 54 53 C54 53.66 54 54.32 54 55 C54.66 55 55.32 55 56 55 C56 55.66 56 56.32 56 57 C56.66 57 57.32 57 58 57 C58 57.66 58 58.32 58 59 C58.66 59 59.32 59 60 59 C61.25 61.625 61.25 61.625 62 65 C58.90825696 71.80183469 52.10103731 78.02674795 46.125 82.359375 C42.77836339 83.36828751 40.38786546 82.79291523 37 82 C34.67188054 80.24874048 32.81612234 78.63901483 30.80517578 76.58154297 C30.23029922 76.01718033 29.65542267 75.45281769 29.06312561 74.87135315 C27.17518939 73.00973139 25.30994483 71.12712912 23.4453125 69.2421875 C22.13579373 67.93671273 20.82538558 66.63212955 19.51412964 65.32839966 C16.77266417 62.59576921 14.04231668 59.85260916 11.31933594 57.1015625 C7.83244379 53.58048614 4.31930459 50.0870356 0.79738045 46.60104179 C-1.91243176 43.91293691 -4.60775823 41.21067183 -7.29895401 38.50394058 C-8.58871541 37.21018387 -9.88292905 35.92084961 -11.18166733 34.63610458 C-12.99656461 32.83648974 -14.7910474 31.01867621 -16.58154297 29.19482422 C-17.11864395 28.66986862 -17.65574493 28.14491302 -18.2091217 27.60404968 C-21.77396782 23.91553282 -22.84403209 21.10890018 -23 16 C-22.67 15.34 -22.34 14.68 -22 14 C-21.34 14 -20.68 14 -20 14 C-20 13.34 -20 12.68 -20 12 C-19.34 12 -18.68 12 -18 12 C-18 11.34 -18 10.68 -18 10 C-17.34 10 -16.68 10 -16 10 C-16 9.34 -16 8.68 -16 8 C-15.34 8 -14.68 8 -14 8 C-14 7.34 -14 6.68 -14 6 C-13.34 6 -12.68 6 -12 6 C-12 5.34 -12 4.68 -12 4 C-7.90769461 0.68718135 -5.25439253 -0.79070956 0 0 Z " fill="#544FD8" transform="translate(168,49)"/>
</svg>
